<?xml version="1.0" encoding="UTF-8"?>
<svg width="33px" height="32px" viewBox="0 0 33 32" version="1.1" xmlns="http://www.w3.org/2000/svg" xmlns:xlink="http://www.w3.org/1999/xlink">
    <!-- Generator: sketchtool 61.1 (101010) - https://sketch.com -->
    <title>9C6AF0EA-39D8-4B77-960A-558EEE8F527E</title>
    <desc>Created with sketchtool.</desc>
    <g id="Asset-Artboard-Page" stroke="none" stroke-width="1" fill="none" fill-rule="evenodd">
        <g id="Icons/Notifications/warning-Core/Icons/Workspace/error" transform="translate(0.940253, 0.000000)" fill="#D0021B">
            <path d="M21.7435899,2.00000048 L21.743,2.134 L21.8381636,2.03917419 L29.9608263,10.1618369 L29.865,10.256 L30,10.2564106 L30,21.7435904 L29.865,21.743 L29.9608263,21.8381641 L21.8381636,29.9608268 L21.743,29.865 L21.7435899,30.0000005 L10.2564101,30.0000005 L10.256,29.865 L10.1618364,29.9608268 L2.03917371,21.8381641 L2.134,21.743 L2,21.7435904 L2,10.2564106 L2.134,10.256 L2.03917371,10.1618369 L10.1618364,2.03917419 L10.256,2.134 L10.2564101,2.00000048 L21.7435899,2.00000048 Z M17.6637267,20.6952252 L14.3361141,20.6952252 L14.204508,20.7051195 C14.0339055,20.7314992 13.8827853,20.8106076 13.7510656,20.9421996 C13.5864161,21.1068492 13.5040913,21.3018121 13.5040913,21.5270885 L13.5040913,21.5270885 L13.5040913,24.4387692 L13.5139702,24.5703153 C13.5403142,24.7408821 13.619346,24.8921299 13.7510656,25.0239772 C13.9158747,25.1883077 14.1106782,25.270792 14.3361141,25.270792 L14.3361141,25.270792 L17.6640458,25.270792 L17.7954974,25.260899 C17.9659416,25.2345244 18.1170874,25.1554416 18.2489347,25.0239772 C18.4134247,24.8591681 18.4957495,24.6640456 18.4957495,24.4387692 L18.4957495,24.4387692 L18.4957495,21.5270885 L18.4858539,21.3955603 C18.4594691,21.2250395 18.3803352,21.0739192 18.2486156,20.9421996 C18.083966,20.77755 17.889003,20.6952252 17.6637267,20.6952252 L17.6637267,20.6952252 Z M18.0796582,6.96852407 L13.9201824,6.96852407 L13.8102557,6.97539555 C13.6315626,6.99829678 13.4754531,7.0784234 13.3418348,7.21549842 C13.1814929,7.38014799 13.1057095,7.5752705 13.1143249,7.80054685 L13.1143249,7.80054685 L13.4782451,17.7833843 L13.4930278,17.9149278 C13.5255595,18.0854844 13.6093904,18.2366812 13.7446838,18.3682732 C13.9136411,18.5329228 14.1106781,18.6154071 14.336114,18.6154071 L14.336114,18.6154071 L17.6640456,18.6154071 L17.7957487,18.6055115 C17.9668668,18.5791267 18.1200548,18.4999928 18.2554758,18.3682732 C18.4244331,18.2037832 18.5129801,18.0086607 18.5219146,17.7833843 L18.5219146,17.7833843 L18.8856753,7.80054685 L18.8830598,7.69043405 C18.8669022,7.51112045 18.7917835,7.35283935 18.6581653,7.21549842 C18.4978234,7.0510084 18.3050941,6.96852407 18.0796582,6.96852407 L18.0796582,6.96852407 Z" id="Combined-Shape"></path>
        </g>
    </g>
</svg>