<?xml version="1.0" encoding="UTF-8"?>
<svg width="33px" height="32px" viewBox="0 0 33 32" version="1.1" xmlns="http://www.w3.org/2000/svg" xmlns:xlink="http://www.w3.org/1999/xlink">
    <!-- Generator: sketchtool 61.1 (101010) - https://sketch.com -->
    <title>8953F8E0-69BF-4148-9414-1F54918CFB72</title>
    <desc>Created with sketchtool.</desc>
    <g id="Asset-Artboard-Page" stroke="none" stroke-width="1" fill="none" fill-rule="evenodd">
        <g id="Icons/Notifications/warning" transform="translate(0.940253, 0.000000)" fill="#FFB72F" stroke="#DFA023" stroke-width="0.5">
            <g id="warning18" transform="translate(0.000000, 4.000000)">
                <path d="M15.9998051,0.0406502299 C16.3701674,0.0406502299 16.7142283,0.133537898 17.0314033,0.319313235 C17.3493576,0.504898618 17.5979543,0.757727834 17.7779726,1.07761093 L17.7779726,1.07761093 L29.9679756,22.8682222 C30.3387275,23.5184358 30.328207,24.1682696 29.9366088,24.8184833 C29.7563957,25.1174714 29.5107214,25.3549143 29.198417,25.5300522 C28.8861126,25.70557 28.5504292,25.7935189 28.1901978,25.7935189 L28.1901978,25.7935189 L3.80960726,25.7935189 C3.44976555,25.7935189 3.11388732,25.70557 2.80158291,25.5300522 C2.48947332,25.3549143 2.24340939,25.1174714 2.06339112,24.8184833 C1.67179295,24.1684596 1.6612724,23.5184358 2.03163465,22.8682222 L2.03163465,22.8682222 L14.2220274,1.07761093 C14.4018508,0.757727834 14.6506423,0.504898618 14.9680121,0.319313235 C15.285382,0.133727853 15.6294429,0.0406502299 15.9998051,0.0406502299 Z M17.8094121,18.0000008 L14.7619601,18.0000008 C14.6242189,18.0000008 14.5053756,18.0492959 14.404846,18.1482697 C14.3043163,18.2474354 14.2540514,18.3696182 14.2540514,18.5153935 L14.2540514,18.5153935 L14.2540514,21.4846081 C14.2540514,21.6303835 14.3043163,21.7525663 14.404846,21.8517319 C14.5053756,21.9507057 14.6244137,22.0000008 14.7619601,22.0000008 L14.7619601,22.0000008 L17.8096069,22.0000008 C17.9473482,22.0000008 18.0663862,21.9507057 18.1669159,21.8517319 C18.2670559,21.7527581 18.3175156,21.6303835 18.3175156,21.4846081 L18.3173208,21.4846081 L18.3173208,18.5153935 C18.3173208,18.3696182 18.2670559,18.2474354 18.1667211,18.1482697 C18.0661914,18.0492959 17.9471534,18.0000008 17.8094121,18.0000008 L17.8094121,18.0000008 Z M18.0319029,5.99999986 L14.5398602,5.99999986 C14.4233549,5.99999986 14.296329,6.07168015 14.1587826,6.214801 C14.0529926,6.3058997 14.0000002,6.44254775 14.0000002,6.62498488 L14.0000002,6.62498488 L14.2698328,15.5504997 C14.2698328,15.6811544 14.3226304,15.7883153 14.4286152,15.8731809 C14.5344051,15.9578068 14.661431,15.9999999 14.809498,15.9999999 L14.809498,15.9999999 L17.7460947,15.9999999 C17.8943565,15.9999999 18.01846,15.9580465 18.1191845,15.8731809 C18.2195193,15.788555 18.2750445,15.6811544 18.2859547,15.5509792 L18.2859547,15.5509792 L18.5713732,6.58590833 C18.5713732,6.42960214 18.5187705,6.3058997 18.4129805,6.214801 C18.2754341,6.07144042 18.1484082,5.99999986 18.0319029,5.99999986 L18.0319029,5.99999986 Z" id="Shape"></path>
            </g>
        </g>
    </g>
</svg>