<?xml version="1.0" encoding="UTF-8"?>
<svg width="10px" height="12px" viewBox="0 0 10 12" version="1.1" xmlns="http://www.w3.org/2000/svg" xmlns:xlink="http://www.w3.org/1999/xlink">
    <title>Remove Copyhover</title>
    <defs>
        <path d="M8.35714286,1.59183673 L8.357,1.714 L10.5,1.71428571 C10.7366935,1.71428571 10.9285714,1.90616368 10.9285714,2.14285714 L10.9285714,3.85714286 C10.9285714,4.09383632 10.7366935,4.28571429 10.5,4.28571429 L10.071,4.285 L10.0714286,10.2857143 C10.0714286,11.3795506 9.45097918,12 8.35714286,12 L4.07142857,12 C2.97759225,12 2.35714286,11.3795506 2.35714286,10.2857143 L2.357,4.285 L1.92857143,4.28571429 C1.69187796,4.28571429 1.5,4.09383632 1.5,3.85714286 L1.5,2.14285714 C1.5,1.90616368 1.69187796,1.71428571 1.92857143,1.71428571 L4.071,1.714 L4.07142857,1.59183673 C4.07142857,-0.530612245 8.35714286,-0.530612245 8.35714286,1.59183673 Z M9.214,4.285 L3.214,4.285 L3.21428571,10.2857143 C3.21428571,10.9061637 3.45097918,11.1428571 4.07142857,11.1428571 L8.35714286,11.1428571 C8.97759225,11.1428571 9.21428571,10.9061637 9.21428571,10.2857143 L9.214,4.285 Z M4.57142857,5.14285714 C4.84757095,5.14285714 5.07142857,5.33473511 5.07142857,5.57142857 L5.07142857,9.85714286 C5.07142857,10.0938363 4.84757095,10.2857143 4.57142857,10.2857143 C4.2952862,10.2857143 4.07142857,10.0938363 4.07142857,9.85714286 L4.07142857,5.57142857 C4.07142857,5.33473511 4.2952862,5.14285714 4.57142857,5.14285714 Z M8,5.14285714 C8.27614237,5.14285714 8.5,5.33473511 8.5,5.57142857 L8.5,9.85714286 C8.5,10.0938363 8.27614237,10.2857143 8,10.2857143 C7.72385763,10.2857143 7.5,10.0938363 7.5,9.85714286 L7.5,5.57142857 C7.5,5.33473511 7.72385763,5.14285714 8,5.14285714 Z M6.28571429,5.14285714 C6.56185666,5.14285714 6.78571429,5.33473511 6.78571429,5.57142857 L6.78571429,9.85714286 C6.78571429,10.0938363 6.56185666,10.2857143 6.28571429,10.2857143 C6.00957191,10.2857143 5.78571429,10.0938363 5.78571429,9.85714286 L5.78571429,5.57142857 C5.78571429,5.33473511 6.00957191,5.14285714 6.28571429,5.14285714 Z M10.0714286,2.57142857 L2.35714286,2.57142857 L2.35714286,3.42857143 L10.0714286,3.42857143 L10.0714286,2.57142857 Z M4.92857143,1.59183673 L4.928,1.714 L7.5,1.714 L7.5,1.59183673 C7.5,0.775510204 4.92857143,0.775510204 4.92857143,1.59183673 Z" id="path-1"></path>
    </defs>
    <g id="UX-guideline-4.2.0" stroke="none" stroke-width="1" fill="none" fill-rule="evenodd">
        <g id="Add-new-target-table" transform="translate(-615.000000, -364.000000)">
            <g id="Group-3" transform="translate(512.000000, 356.000000)">
                <g id="Remove-Copy" transform="translate(102.000000, 8.000000)">
                    <mask id="mask-2" fill="white">
                        <use xlink:href="#path-1"></use>
                    </mask>
                    <use id="Combined-Shape" fill="#FFFFFF" xlink:href="#path-1"></use>
                </g>
            </g>
        </g>
    </g>
</svg>