<svg xmlns="http://www.w3.org/2000/svg" xmlns:xlink="http://www.w3.org/1999/xlink" width="16" height="16" viewBox="0 0 16 16">
    <defs>
        <path id="a" d="M3.111 2.16v-.494c0-2.138 4.978-2.138 4.978 0v.493h2.489c.275 0 .498.22.498.493v1.974a.496.496 0 0 1-.498.493h-.498v6.908c0 1.259-.72 1.973-1.991 1.973H3.11c-1.27 0-1.991-.714-1.991-1.973V5.119H.622a.496.496 0 0 1-.498-.493V2.652c0-.272.223-.493.498-.493h2.49zm.996 0h2.986v-.494c0-.823-2.986-.823-2.986 0v.493zM2.116 5.12v6.907c0 .714.274.986.995.986H8.09c.72 0 .995-.272.995-.986V5.119H2.116zm-.996-.987h8.96v-.987H1.12v.987zm1.991 2.466c0-.272.224-.493.5-.493s.5.22.5.493v4.934a.497.497 0 0 1-.5.494c-.276 0-.5-.221-.5-.494V6.6zm3.982 0c0-.272.224-.493.5-.493s.5.22.5.493v4.934a.497.497 0 0 1-.5.494c-.276 0-.5-.221-.5-.494V6.6zm-1.99 0c0-.272.223-.493.5-.493.275 0 .5.22.5.493v4.934a.497.497 0 0 1-.5.494c-.277 0-.5-.221-.5-.494V6.6z"/>
    </defs>
    <g fill="none" fill-rule="evenodd" transform="matrix(-1 0 0 1 13.2 1)">
        <mask id="b" fill="#fff">
            <use xlink:href="#a"/>
        </mask>
        <use fill="#000" fill-rule="nonzero" xlink:href="#a"/>
        <g fill="#606060" mask="url(#b)">
            <path d="M-1.867-.933h15v15h-15z"/>
        </g>
    </g>
</svg>
