<svg xmlns="http://www.w3.org/2000/svg" width="16" height="16" viewBox="0 0 16 16">
    <g fill="#606060" fill-rule="nonzero">
        <path d="M7.39 12.79c-.34 0-.682-.033-1.015-.096a.29.29 0 0 1 .109-.571c.297.057.602.086.907.086a.29.29 0 0 1 0 .58zm-1.888-.362a.292.292 0 0 1-.108-.02 5.386 5.386 0 0 1-.908-.468.29.29 0 0 1 .313-.489c.256.164.529.304.81.417a.29.29 0 0 1-.107.56zm-1.62-1.038a.29.29 0 0 1-.2-.08 5.46 5.46 0 0 1-.671-.77.29.29 0 0 1 .471-.339c.178.248.38.479.6.688a.29.29 0 0 1-.2.5zM2.76 9.827a.29.29 0 0 1-.264-.169 5.416 5.416 0 0 1-.339-.964.29.29 0 0 1 .564-.14c.073.295.175.585.302.86a.29.29 0 0 1-.263.413zm-.463-1.868a.29.29 0 0 1-.29-.276A5.49 5.49 0 0 1 2 7.395a.29.29 0 1 1 .58 0c0 .086.003.173.007.258a.29.29 0 0 1-.274.305h-.016z"/>
        <path d="M2.29 7.685a.29.29 0 0 1-.29-.29A5.399 5.399 0 0 1 7.39 2a5.406 5.406 0 0 1 5.344 4.672.29.29 0 1 1-.576.077 4.824 4.824 0 0 0-4.767-4.168 4.817 4.817 0 0 0-4.81 4.814c0 .16-.13.29-.29.29z"/>
        <path d="M12.571 5.582l.904-.288c.214-.069.443.102.427.327a.433.433 0 0 1-.042.164l-.823 1.593a.326.326 0 0 1-.44.14l-1.592-.826a.419.419 0 0 1-.129-.106c-.142-.174-.054-.446.16-.515l.952-.303.583-.186z"/>
    </g>
</svg>
