<svg xmlns="http://www.w3.org/2000/svg" width="16" height="16" viewBox="0 0 16 16">
    <g fill="#606060" fill-rule="nonzero">
        <path d="M8.61 12.79c.34 0 .682-.033 1.015-.096a.29.29 0 0 0-.109-.571 4.847 4.847 0 0 1-.907.086.29.29 0 0 0 0 .58zm1.888-.362a.292.292 0 0 0 .108-.02c.315-.127.62-.284.908-.468a.29.29 0 0 0-.313-.489 4.811 4.811 0 0 1-.81.417.29.29 0 0 0 .107.56zm1.62-1.038a.29.29 0 0 0 .2-.08 5.46 5.46 0 0 0 .671-.77.29.29 0 0 0-.471-.339c-.178.248-.38.479-.6.688a.29.29 0 0 0 .2.5zm1.122-1.563a.29.29 0 0 0 .264-.169c.143-.309.257-.633.339-.964a.29.29 0 0 0-.564-.14 4.812 4.812 0 0 1-.302.86.29.29 0 0 0 .263.413zm.463-1.868a.29.29 0 0 0 .29-.276A5.49 5.49 0 0 0 14 7.395a.29.29 0 1 0-.58 0c0 .086-.003.173-.007.258a.29.29 0 0 0 .29.306z"/>
        <path d="M13.71 7.685c.16 0 .29-.13.29-.29A5.399 5.399 0 0 0 8.61 2a5.406 5.406 0 0 0-5.344 4.672.29.29 0 1 0 .576.077 4.824 4.824 0 0 1 4.767-4.168c2.652 0 4.81 2.16 4.81 4.814 0 .16.13.29.29.29z"/>
        <path d="M3.429 5.582l-.904-.288c-.214-.069-.443.102-.427.327a.433.433 0 0 0 .042.164l.823 1.593c.082.16.28.222.44.14l1.592-.826a.419.419 0 0 0 .129-.106c.142-.174.054-.446-.16-.515l-.952-.303-.583-.186z"/>
    </g>
</svg>
