<?xml version="1.0" encoding="UTF-8"?>
<svg width="12px" height="14px" viewBox="0 0 12 14" version="1.1" xmlns="http://www.w3.org/2000/svg" xmlns:xlink="http://www.w3.org/1999/xlink">
    <!-- Generator: Sketch 57.1 (83088) - https://sketch.com -->
    <title>Core/Icons/Workspace/Trashcan</title>
    <desc>Created with Sketch.</desc>
    <defs>
        <path d="M9.75,1.85714286 L9.75,1.999 L12.25,2 C12.5261424,2 12.75,2.22385763 12.75,2.5 L12.75,4.5 C12.75,4.77614237 12.5261424,5 12.25,5 L11.75,4.999 L11.75,12 C11.75,13.2761424 11.0261424,14 9.75,14 L4.75,14 C3.47385763,14 2.75,13.2761424 2.75,12 L2.75,4.999 L2.25,5 C1.97385763,5 1.75,4.77614237 1.75,4.5 L1.75,2.5 C1.75,2.22385763 1.97385763,2 2.25,2 L4.749,1.999 L4.75,1.85714286 C4.75,-0.619047619 9.75,-0.619047619 9.75,1.85714286 Z M10.75,4.999 L3.75,4.999 L3.75,12 C3.75,12.7238576 4.02614237,13 4.75,13 L9.75,13 C10.4738576,13 10.75,12.7238576 10.75,12 L10.75,4.999 Z M5.25,6 C5.52614237,6 5.75,6.22385763 5.75,6.5 L5.75,11.5 C5.75,11.7761424 5.52614237,12 5.25,12 C4.97385763,12 4.75,11.7761424 4.75,11.5 L4.75,6.5 C4.75,6.22385763 4.97385763,6 5.25,6 Z M9.25,6 C9.52614237,6 9.75,6.22385763 9.75,6.5 L9.75,11.5 C9.75,11.7761424 9.52614237,12 9.25,12 C8.97385763,12 8.75,11.7761424 8.75,11.5 L8.75,6.5 C8.75,6.22385763 8.97385763,6 9.25,6 Z M7.25,6 C7.52614237,6 7.75,6.22385763 7.75,6.5 L7.75,11.5 C7.75,11.7761424 7.52614237,12 7.25,12 C6.97385763,12 6.75,11.7761424 6.75,11.5 L6.75,6.5 C6.75,6.22385763 6.97385763,6 7.25,6 Z M4.749,2.999 L2.75,3 L2.75,4 L11.75,4 L11.75,3 L9.75,2.999 L9.75,3 L8.75,3 L8.75,2.999 L5.749,2.999 L5.75,3 L4.75,3 L4.749,2.999 Z M5.75,1.85714286 L5.749,1.999 L8.75,1.999 L8.75,1.85714286 C8.75,0.904761905 5.75,0.904761905 5.75,1.85714286 Z" id="path-1"></path>
        <rect id="path-3" x="0" y="0" width="14" height="14"></rect>
        <filter x="-50.0%" y="-35.7%" width="200.0%" height="200.0%" filterUnits="objectBoundingBox" id="filter-4">
            <feOffset dx="0" dy="2" in="SourceAlpha" result="shadowOffsetOuter1"></feOffset>
            <feGaussianBlur stdDeviation="2" in="shadowOffsetOuter1" result="shadowBlurOuter1"></feGaussianBlur>
            <feColorMatrix values="0 0 0 0 0   0 0 0 0 0   0 0 0 0 0  0 0 0 0.5 0" type="matrix" in="shadowBlurOuter1"></feColorMatrix>
        </filter>
    </defs>
    <g id="UI_Import-CSV" stroke="none" stroke-width="1" fill="none" fill-rule="evenodd">
        <g id="DINT-247-Guideline02" transform="translate(-737.000000, -507.000000)">
            <g id="Core/Icons/Workspace/Trashcan" transform="translate(743.000000, 514.000000) scale(-1, 1) translate(-743.000000, -514.000000) translate(736.000000, 507.000000)">
                <mask id="mask-2" fill="white">
                    <use xlink:href="#path-1"></use>
                </mask>
                <use id="Combined-Shape" fill="#000000" fill-rule="nonzero" xlink:href="#path-1"></use>
                <g id="Core/Colors/White" mask="url(#mask-2)">
                    <g id="Rectangle-Copy-2">
                        <use fill="black" fill-opacity="1" filter="url(#filter-4)" xlink:href="#path-3"></use>
                        <use fill="#FFFFFF" fill-rule="evenodd" xlink:href="#path-3"></use>
                    </g>
                </g>
            </g>
        </g>
    </g>
</svg>