<?xml version="1.0" encoding="UTF-8"?>
<svg width="16px" height="16px" viewBox="0 0 16 16" version="1.1" xmlns="http://www.w3.org/2000/svg" xmlns:xlink="http://www.w3.org/1999/xlink">
    <!-- Generator: sketchtool 58 (101010) - https://sketch.com -->
    <title>81E025E2-B4F2-4D59-9993-9A45DA79A225</title>
    <desc>Created with sketchtool.</desc>
    <g id="UX" stroke="none" stroke-width="1" fill="none" fill-rule="evenodd">
        <g id="01" transform="translate(-1350.000000, -170.000000)" fill="#606060" fill-rule="nonzero">
            <g id="Tools-bar" transform="translate(1198.000000, 170.000000)">
                <g id="Group-12">
                    <g id="Icons/-zoom-out-Copy-Icons/Toolbar/zoom-out" transform="translate(152.000000, 0.000000)">
                        <path d="M7.00072727,-1.42022517e-05 C8.86093739,-0.00337460411 10.6442879,0.741784917 11.9490909,2.06763636 C13.2683378,3.39308293 14.00621,5.18883359 14.0000403,7.05890909 C14.005708,8.7458325 13.4059955,10.3723306 12.3202448,11.6477875 L15.8050909,14.9287273 C15.9293447,15.0427752 16.0000753,15.2037044 16.0000753,15.3723636 C16.0000753,15.5410229 15.9293447,15.701952 15.8050909,15.816 C15.6749091,15.9389091 15.504,16.000009 15.3330909,16.000009 C15.1583051,16.0008937 14.9897593,15.935088 14.8618182,15.816 L14.8618182,15.816 L11.3944642,12.5544254 C10.1534417,13.5672744 8.61814815,14.117831 7,14.117831 C5.13953779,14.1213883 3.35588886,13.3762136 2.05090909,12.0501818 C0.731662203,10.7247353 -0.00620998919,8.92898459 -3.88825027e-05,7.05890909 C-0.00620998919,5.18883359 0.731662203,3.39308293 2.05090909,2.06763636 C3.35606557,0.741424289 5.14001297,-0.00376560851 7.00072727,-1.42022517e-05 Z M7.00072727,1.27054545 C3.83490909,1.27054545 1.26036364,3.86690909 1.26036364,7.05818182 C1.26036364,10.2509091 3.83563636,12.8472727 7.00072727,12.8472727 L7.00072727,12.8472727 C10.1665455,12.848 12.7410909,10.2509091 12.7410909,7.05890909 C12.7410909,3.86690909 10.1658182,1.27054545 7.00072727,1.27054545 Z M9.37454545,6.58836364 C9.72,6.58836364 10,6.81247492 10,7.08836364 C10,7.36425235 9.72,7.58836364 9.37454545,7.58836364 L9.37454545,7.58836364 L4.62545455,7.58836364 C4.28,7.58836364 4,7.36425235 4,7.08836364 C4,6.81247492 4.28,6.58836364 4.62545455,6.58836364 L4.62545455,6.58836364 Z" id="zoomOut"></path>
                    </g>
                </g>
            </g>
        </g>
    </g>
</svg>