<?xml version="1.0" encoding="UTF-8"?>
<svg width="16px" height="16px" viewBox="0 0 16 16" version="1.1" xmlns="http://www.w3.org/2000/svg" xmlns:xlink="http://www.w3.org/1999/xlink">
    <!-- Generator: sketchtool 58 (101010) - https://sketch.com -->
    <title>072DC473-7831-4A52-9659-66361DD906B4</title>
    <desc>Created with sketchtool.</desc>
    <g id="UX" stroke="none" stroke-width="1" fill="none" fill-rule="evenodd">
        <g id="01" transform="translate(-1378.000000, -170.000000)" fill="#606060" fill-rule="nonzero">
            <g id="Tools-bar" transform="translate(1198.000000, 170.000000)">
                <g id="Group-12">
                    <g id="Icons/-zoon-in-Copy-Icons/Toolbar/-zoon-in" transform="translate(180.000000, 0.000000)">
                        <path d="M7.00001523,0 C8.8697801,0 10.6276563,0.728129004 11.9497637,2.0502668 C13.2719015,3.37237414 14,5.1302199 14,7.00001523 C14,8.64558144 13.4359946,10.2044828 12.399495,11.4559345 L15.804735,14.8617794 C16.065083,15.1221569 16.065083,15.5442991 15.8047672,15.8047088 C15.6745933,15.9349137 15.5039293,16 15.3332976,16 C15.1967922,16 15.0602662,15.9583448 14.944467,15.8750178 L14.861828,15.8047088 L11.4559345,12.3995035 C10.2044828,13.4360182 8.64558144,14 7.00001523,14 C5.13025036,14 3.37237414,13.2718405 2.0502668,11.9497637 C0.728129004,10.6276563 0,8.8697801 0,7.00001523 C0,5.1302199 0.728129004,3.37237414 2.0502668,2.0502668 C3.3724046,0.728129004 5.1302199,0 7.00001523,0 Z M7.00001523,1.25970673 C3.83479042,1.25970673 1.25970673,3.83479042 1.25970673,7.00001523 C1.25970673,10.16524 3.83482088,12.7403237 7.00001523,12.7403237 C10.1652096,12.7403237 12.7403237,10.16524 12.7403237,7.00001523 C12.7403237,3.83479042 10.16524,1.25970673 7.00001523,1.25970673 Z M6.99032805,4.00819304 L7.07142857,4 C7.31994902,4 7.52613266,4.2270123 7.56488419,4.52442784 L7.57142857,4.62595905 L7.571,6.571 L9.37404095,6.57142857 C9.68519544,6.57142857 9.94329868,6.75276016 9.99180778,6.99032805 L10,7.07142857 C10,7.31994902 9.77301221,7.52613266 9.47557952,7.56488419 L9.37404095,7.57142857 L7.571,7.571 L7.57142857,9.37404095 C7.57142857,9.6851682 7.39009698,9.94329323 7.15252909,9.99180696 L7.07142857,10 C6.82290812,10 6.61672448,9.77301221 6.57797296,9.47557952 L6.57142857,9.37404095 L6.571,7.571 L4.62595905,7.57142857 C4.3148318,7.57142857 4.05670677,7.39009698 4.00819304,7.15252909 L4,7.07142857 C4,6.82290812 4.2270123,6.61672448 4.52442784,6.57797296 L4.62595905,6.57142857 L6.571,6.571 L6.57142857,4.62595905 C6.57142857,4.3148318 6.75276016,4.05670677 6.99032805,4.00819304 L7.07142857,4 Z" id="zoomIn"></path>
                    </g>
                </g>
            </g>
        </g>
    </g>
</svg>