<?xml version="1.0" encoding="UTF-8"?>
<svg width="16px" height="16px" viewBox="0 0 16 16" version="1.1" xmlns="http://www.w3.org/2000/svg" xmlns:xlink="http://www.w3.org/1999/xlink">
    <title>Add table button_onHover</title>
    <defs>
        <path d="M5,0 L5,3 L8,3 L8,5 L5,5 L5,8 L3,8 L3,5 L0,5 L0,3 L3,3 L3,0 L5,0 Z" id="path-1"></path>
        <path d="M5,0 L5,3 L8,3 L8,5 L5,5 L5,8 L3,8 L3,5 L0,5 L0,3 L3,3 L3,0 L5,0 Z" id="path-3"></path>
    </defs>
    <g id="Dataset-level-ver-4.2.0" stroke="none" stroke-width="1" fill="none" fill-rule="evenodd">
        <g id="ICSV_02" transform="translate(-1300.000000, -130.000000)">
            <g id="tab-bar" transform="translate(20.000000, 120.000000)">
                <g id="Add-table-button" transform="translate(1280.000000, 10.000000)">
                    <g id="Normal">
                        <rect id="Rectangle-Copy-3" fill-opacity="0.2" fill="#7BA6DE" x="0" y="0" width="16" height="16" rx="8"></rect>
                        <g id="Core/Icons/Workspace/Add-Copy" transform="translate(4.000000, 4.000000)">
                            <mask id="mask-2" fill="white">
                                <use xlink:href="#path-1"></use>
                            </mask>
                            <use id="Combined-Shape" fill="#436CCB" xlink:href="#path-1"></use>
                        </g>
                    </g>
                    <g id="Hover">
                        <rect id="Rectangle-Copy-3" fill="#3478D2" x="0" y="0" width="16" height="16" rx="8"></rect>
                        <g id="Core/Icons/Workspace/Add-Copy" transform="translate(4.000000, 4.000000)">
                            <mask id="mask-4" fill="white">
                                <use xlink:href="#path-3"></use>
                            </mask>
                            <use id="Combined-Shape" fill="#FFFFFF" xlink:href="#path-3"></use>
                        </g>
                    </g>
                </g>
            </g>
        </g>
    </g>
</svg>