<?xml version="1.0" encoding="UTF-8"?>
<svg width="22px" height="20px" viewBox="0 0 22 20" version="1.1" xmlns="http://www.w3.org/2000/svg" xmlns:xlink="http://www.w3.org/1999/xlink">
    <!-- Generator: Sketch 55.2 (78181) - https://sketchapp.com -->
    <title>Core/Logo/EBX white</title>
    <desc>Created with Sketch.</desc>
    <g id="Core/Logo/EBX-white" stroke="none" stroke-width="1" fill="none" fill-rule="evenodd" stroke-linecap="round">
        <g id="g4000" transform="translate(1.000000, 1.000000)" stroke="#FFFFFF">
            <path d="M14.7720605,2.67180713 C14.7720605,4.10038858 11.5293966,5.25848305 7.52936842,5.25848305 C3.52934019,5.25848305 0.286676323,4.10038858 0.286676323,2.67180713 C0.286676323,1.24322568 3.52934019,0.085131203 7.52936842,0.085131203 C11.5293966,0.085131203 14.7720605,1.24322568 14.7720605,2.67180713 Z" id="path4002" stroke-width="2.03625156" stroke-linejoin="round"></path>
            <path d="M0.406015038,2.67180902 L0.406015038,15.0878508" id="path4004" stroke-width="1.99999995"></path>
            <path d="M15.2932331,2.67180902 L15.2932331,15.0878508" id="path4006" stroke-width="1.99999995"></path>
            <path d="M14.7720605,6.81049435 C14.7720605,8.2390758 11.5293966,9.39717027 7.52936842,9.39717027 C3.52934019,9.39717027 0.286676323,8.2390758 0.286676323,6.81049435 C0.286676323,6.81049435 0.286676323,6.81049435 0.286676323,6.81049435" id="path4008" stroke-width="2.03625156" stroke-linejoin="round"></path>
            <path d="M14.772047,10.949168 C14.772047,12.3777495 11.5293831,13.535844 7.52935488,13.535844 C3.52932666,13.535844 0.286662789,12.3777495 0.286662789,10.949168 C0.286662789,10.949168 0.286662789,10.949168 0.286662789,10.949168" id="path4010" stroke-width="2.03625156" stroke-linejoin="round"></path>
            <path d="M14.772047,15.0878552 C14.772047,16.5164367 11.5293831,17.6745312 7.52935488,17.6745312 C3.52932666,17.6745312 0.286662789,16.5164367 0.286662789,15.0878552 C0.286662789,15.0878552 0.286662789,15.0878552 0.286662789,15.0878552" id="path4012" stroke-width="2.03625156" stroke-linejoin="round"></path>
        </g>
    </g>
</svg>