<?xml version="1.0" encoding="UTF-8"?>
<svg width="22px" height="20px" viewBox="0 0 22 20" version="1.1" xmlns="http://www.w3.org/2000/svg" xmlns:xlink="http://www.w3.org/1999/xlink">
    <!-- Generator: Sketch 55.2 (78181) - https://sketchapp.com -->
    <title>Core/Logo/Excel white</title>
    <desc>Created with Sketch.</desc>
    <g id="Core/Logo/Excel-white" stroke="none" stroke-width="1" fill="none" fill-rule="evenodd">
        <g id="excellogo" fill="#FFFFFF" fill-rule="nonzero">
            <path d="M19.3553846,2.30769231 L12.3076923,2.30769231 L12.3076923,4.60307692 L14.6392308,4.60307692 L14.6392308,6.16538462 L12.3076923,6.16538462 L12.3076923,7.69230769 L14.6153846,7.69230769 L14.6153846,9.23076923 L12.3076923,9.23076923 L12.3076923,10.7692308 L14.6153846,10.7692308 L14.6153846,12.3076923 L12.3076923,12.3076923 L12.3076923,13.8461538 L14.6153846,13.8461538 L14.6153846,15.3846154 L12.3076923,15.3846154 L12.3076923,17.6923077 L19.3553846,17.6923077 C19.71,17.6923077 20,17.3915385 20,17.0230769 L20,2.97692308 C20,2.60846154 19.71,2.30769231 19.3553846,2.30769231 Z M18.4615385,15.3846154 L15.3846154,15.3846154 L15.3846154,13.8461538 L18.4615385,13.8461538 L18.4615385,15.3846154 Z M18.4615385,12.3076923 L15.3846154,12.3076923 L15.3846154,10.7692308 L18.4615385,10.7692308 L18.4615385,12.3076923 Z M18.4615385,9.23076923 L15.3846154,9.23076923 L15.3846154,7.69230769 L18.4615385,7.69230769 L18.4615385,9.23076923 Z M18.4615385,6.15384615 L15.3846154,6.15384615 L15.3846154,4.61538462 L18.4615385,4.61538462 L18.4615385,6.15384615 Z" id="Shape"></path>
            <path d="M0,2.22230769 L0,17.7784615 L11.5384615,20 L11.5384615,0 L0,2.22230769 Z M7.29846154,13.9076923 L5.95615385,11.37 C5.90538462,11.2753846 5.85307692,11.1015385 5.79846154,10.8484615 L5.77769231,10.8484615 C5.75230769,10.9676923 5.69230769,11.1492308 5.59769231,11.3923077 L4.25076923,13.9076923 L2.15923077,13.9076923 L4.64230769,10.0123077 L2.37076923,6.11615385 L4.50615385,6.11615385 L5.62,8.45230769 C5.70692308,8.63692308 5.78461538,8.85615385 5.85384615,9.10923077 L5.87538462,9.10923077 C5.91923077,8.95692308 6.00076923,8.73076923 6.12,8.43 L7.35846154,6.11538462 L9.31384615,6.11538462 L6.97769231,9.97846154 L9.37923077,13.9069231 L7.29846154,13.9076923 L7.29846154,13.9076923 Z" id="Shape"></path>
        </g>
    </g>
</svg>