<?xml version="1.0" encoding="UTF-8"?>
<svg width="22px" height="20px" viewBox="0 0 22 20" version="1.1" xmlns="http://www.w3.org/2000/svg" xmlns:xlink="http://www.w3.org/1999/xlink">
    <!-- Generator: Sketch 55.2 (78181) - https://sketchapp.com -->
    <title>Core/Logo/Jsol2</title>
    <desc>Created with Sketch.</desc>
    <g id="Core/Logo/Jsol2" stroke="none" stroke-width="1" fill="none" fill-rule="evenodd">
        <rect id="Rectangle" fill="#000000" x="0" y="5" width="22" height="10" rx="2"></rect>
        <path d="M1,4 L21,4 C21.5522847,4 22,4.44771525 22,5 L22,15 C22,15.5522847 21.5522847,16 21,16 L1,16 C0.44771525,16 6.76353751e-17,15.5522847 0,15 L0,5 C-6.76353751e-17,4.44771525 0.44771525,4 1,4 Z M4.43386194,10.9622106 L4.43386194,6.89010043 L3.2561505,6.89010043 L3.2561505,10.9884259 C3.2561505,11.2272776 3.23426017,11.4304441 3.19047886,11.5979316 C3.14669754,11.7654191 3.08175623,11.9015917 2.99565299,12.0064534 C2.90954974,12.1113151 2.80228713,12.1877757 2.67386194,12.2358373 C2.54543675,12.2838989 2.39804188,12.3079294 2.23167289,12.3079294 C2.10908521,12.3079294 2.00766002,12.2977346 1.92739428,12.2773448 C1.84712854,12.2569551 1.78218723,12.2467603 1.73256841,12.2467603 C1.65084329,12.2467603 1.58882069,12.2664216 1.54649876,12.3057448 C1.50417682,12.3450679 1.48009746,12.3967698 1.47425995,12.460852 L1.41296642,13.1599267 C1.57933541,13.2007062 1.73840513,13.2305622 1.89018035,13.2494956 C2.04195557,13.268429 2.19664722,13.2778955 2.35425995,13.2778955 C2.69867295,13.2778955 3.00075948,13.224009 3.26052861,13.1162345 C3.52029773,13.0084599 3.73701198,12.8540825 3.91067786,12.6530975 C4.08434374,12.4521125 4.21495603,12.2088952 4.30251866,11.9234383 C4.39008128,11.6379813 4.43386194,11.3175753 4.43386194,10.9622106 Z M9.10530473,8.03920447 L9.39425995,7.48431392 C9.17243463,7.27459047 8.90391327,7.11147467 8.58868781,6.99496163 C8.27346235,6.8784486 7.92905452,6.82019296 7.55545398,6.82019296 C7.22563475,6.82019296 6.93230435,6.87116665 6.67545398,6.97311555 C6.41860361,7.07506445 6.20188936,7.21050882 6.02530473,7.37945272 C5.8487201,7.54839662 5.71445941,7.74209663 5.62251866,7.96055856 C5.5305779,8.1790205 5.48460821,8.40330472 5.48460821,8.63341796 C5.48460821,8.92178772 5.52619983,9.16427683 5.60938433,9.36089258 C5.69256882,9.55750832 5.80275014,9.72135231 5.93993159,9.85242947 C6.07711304,9.98350664 6.23326405,10.0898232 6.4083893,10.1713823 C6.58351456,10.2529414 6.76155589,10.3228482 6.94251866,10.3811047 C7.12348142,10.4393612 7.30152276,10.4932477 7.47664801,10.5427657 C7.65177326,10.5922838 7.80792427,10.652724 7.94510572,10.7240882 C8.08228717,10.7954525 8.19246849,10.8835641 8.27565299,10.9884259 C8.35883748,11.0932876 8.4004291,11.228732 8.4004291,11.394763 C8.4004291,11.6918713 8.30848973,11.9197965 8.12460821,12.0785455 C7.94072669,12.2372945 7.68096146,12.3166678 7.34530473,12.3166678 C7.12639816,12.3166678 6.93887101,12.2868118 6.78271766,12.2270988 C6.62656431,12.1673859 6.49084427,12.1011201 6.37555348,12.0282995 C6.26026269,11.9554788 6.16029686,11.889213 6.07565299,11.8295001 C5.99100911,11.7697872 5.91220393,11.7399312 5.83923507,11.7399312 C5.78377874,11.7399312 5.73343099,11.7537669 5.6881903,11.7814387 C5.64294961,11.8091106 5.60427669,11.8433358 5.5721704,11.8841153 L5.23067786,12.4477443 C5.35326554,12.5729958 5.49263396,12.6865943 5.64878731,12.7885432 C5.80494066,12.8904921 5.97276652,12.9778756 6.1522699,13.0506962 C6.33177329,13.1235169 6.51930043,13.1795879 6.71485697,13.2189111 C6.9104135,13.2582342 7.10888581,13.2778955 7.31027985,13.2778955 C7.66053036,13.2778955 7.97137302,13.2247372 8.24281716,13.1184191 C8.51426131,13.012101 8.74410976,12.8664618 8.9323694,12.6814974 C9.12062905,12.496533 9.26364586,12.2795307 9.36142413,12.0304841 C9.4592024,11.7814375 9.5080908,11.5141897 9.5080908,11.2287328 C9.5080908,10.9665785 9.46649917,10.7437506 9.38331468,10.5602426 C9.30013018,10.3767346 9.18994886,10.2216289 9.05276741,10.094921 C8.91558596,9.96821309 8.75943496,9.86335293 8.5843097,9.7803374 C8.40918445,9.69732186 8.23041343,9.62450231 8.04799129,9.56187655 C7.86556915,9.4992508 7.68679814,9.44026696 7.51167289,9.38492327 C7.33654763,9.32957958 7.18039662,9.26695476 7.04321517,9.19704694 C6.90603373,9.12713912 6.79585241,9.04266844 6.71266791,8.94363236 C6.62948341,8.84459629 6.58789179,8.72080304 6.58789179,8.57224893 C6.58789179,8.4557359 6.60832276,8.34869115 6.64918532,8.25111149 C6.69004788,8.15353182 6.75207048,8.06978934 6.83525498,7.99988152 C6.91843947,7.9299737 7.02059434,7.87535903 7.14172264,7.83603588 C7.26285094,7.79671274 7.40513807,7.77705146 7.56858831,7.77705146 C7.74955107,7.77705146 7.90643176,7.79962552 8.03923507,7.84477432 C8.17203839,7.88992312 8.28805713,7.94016861 8.38729478,7.9955123 C8.48653242,8.05085599 8.57263438,8.10110148 8.64560323,8.14625028 C8.71857209,8.19139908 8.78424307,8.21397314 8.84261816,8.21397314 C8.90099324,8.21397314 8.951341,8.20086562 8.99366294,8.17465019 C9.03598487,8.14843476 9.07319843,8.10328664 9.10530473,8.03920447 Z M16.4824192,10.0490442 C16.4824192,9.58590493 16.4050733,9.15699776 16.2503794,8.76230986 C16.0956854,8.36762196 15.8782415,8.02682646 15.598041,7.73991311 C15.3178406,7.45299977 14.9807296,7.22798735 14.5866978,7.0648691 C14.1926659,6.90175086 13.7563187,6.82019296 13.277643,6.82019296 C12.7989673,6.82019296 12.3618905,6.90102266 11.9663993,7.0626845 C11.5709081,7.22434633 11.2323376,7.44935875 10.9506779,7.7377285 C10.6690181,8.02609826 10.4508445,8.36762196 10.2961505,8.76230986 C10.1414565,9.15699776 10.0641107,9.58590493 10.0641107,10.0490442 C10.0641107,10.5121835 10.1414565,10.9410907 10.2961505,11.3357786 C10.4508445,11.7304665 10.6690181,12.0719902 10.9506779,12.36036 C11.2323376,12.6487297 11.5709081,12.8737421 11.9663993,13.035404 C12.3618905,13.1970658 12.7989673,13.2778955 13.277643,13.2778955 C13.7563187,13.2778955 14.1926659,13.1970658 14.5866978,13.035404 C14.9807296,12.8737421 15.3178406,12.6487297 15.598041,12.36036 C15.8782415,12.0719902 16.0956854,11.7304665 16.2503794,11.3357786 C16.4050733,10.9410907 16.4824192,10.5121835 16.4824192,10.0490442 Z M15.2740609,10.0490442 C15.2740609,10.3956705 15.2280913,10.70661 15.1361505,10.981872 C15.0442097,11.2571341 14.9121381,11.4901566 14.7399316,11.6809467 C14.5677251,11.8717368 14.3583076,12.0181041 14.1116729,12.120053 C13.8650382,12.2220019 13.587031,12.2729756 13.277643,12.2729756 C12.9682551,12.2729756 12.6895182,12.2220019 12.4414241,12.120053 C12.19333,12.0181041 11.9824532,11.8717368 11.8087873,11.6809467 C11.6351214,11.4901566 11.5015904,11.2571341 11.4081903,10.981872 C11.3147902,10.70661 11.2680908,10.3956705 11.2680908,10.0490442 C11.2680908,9.70241796 11.3147902,9.39147847 11.4081903,9.11621643 C11.5015904,8.84095439 11.6351214,8.60720362 11.8087873,8.41495712 C11.9824532,8.22271062 12.19333,8.07561512 12.4414241,7.97366622 C12.6895182,7.87171731 12.9682551,7.82074362 13.277643,7.82074362 C13.587031,7.82074362 13.8650382,7.87171731 14.1116729,7.97366622 C14.3583076,8.07561512 14.5677251,8.22271062 14.7399316,8.41495712 C14.9121381,8.60720362 15.0442097,8.84095439 15.1361505,9.11621643 C15.2280913,9.39147847 15.2740609,9.70241796 15.2740609,10.0490442 Z M18.5882898,12.2380219 L18.5882898,6.89010043 L17.4105784,6.89010043 L17.4105784,13.207988 L21.1232152,13.207988 L21.1232152,12.2380219 L18.5882898,12.2380219 Z" id="Combined-Shape" fill="#FFFFFF" fill-rule="nonzero"></path>
    </g>
</svg>