<?xml version="1.0" encoding="UTF-8"?>
<svg width="15px" height="15px" viewBox="0 0 15 15" version="1.1" xmlns="http://www.w3.org/2000/svg" xmlns:xlink="http://www.w3.org/1999/xlink">
    <!-- Generator: Sketch 55.2 (78181) - https://sketchapp.com -->
    <title>Core/Icons/Workspace/PrimaryKey</title>
    <desc>Created with Sketch.</desc>
    <defs>
        <path d="M14,6.59869319 L13.439732,6 L6.14700034,6 C5.96976944,6 5.80774977,5.89299881 5.7284897,5.7236068 C5.22024182,4.63739613 4.32551143,4 2.87163649,4 C2.09178795,4 1,4.875 1,5.5 L1,8.5 C1,9.125 2.09178795,10 2.87163649,10 C4.32551143,10 5.22024182,9.36260387 5.7284897,8.2763932 C5.80774977,8.10700119 5.96976944,8 6.14700034,8 L6.88900428,8 L7.68777512,7.14644661 C7.88152699,6.93940654 8.19955694,6.95378084 8.37625579,7.17756453 L9.02564807,8 L9.69641222,8 L10.4951831,7.14644661 C10.6779129,6.95118446 10.9741766,6.95118446 11.1569065,7.14644661 L11.761863,7.79289322 L12.3668195,7.14644661 C12.5495494,6.95118446 12.8458131,6.95118446 13.028543,7.14644661 L13.5053151,7.65591748 L14,6.59869319 Z M6.37253622,5 L13.5937808,5 C13.7181013,5 13.83733,5.05267842 13.9252378,5.14644661 L14.8626931,6.14644661 C15.0053623,6.29862674 15.0407316,6.53111247 14.9504997,6.7236068 L14.0129976,8.7236068 C13.8699118,9.02885589 13.4885154,9.09487399 13.2622768,8.85355339 L12.6562318,8.20710678 L12.0501867,8.85355339 C11.867128,9.04881554 11.5703313,9.04881554 11.3872726,8.85355339 L10.7812275,8.20710678 L10.1751825,8.85355339 C10.0872746,8.94732158 9.96804592,9 9.84372541,9 L8.75978546,9 C8.62167225,9 8.49058821,8.93503122 8.40152301,8.82243547 L7.93949035,8.23833624 L7.36272297,8.85355339 C7.2748151,8.94732158 7.15558643,9 7.03126592,9 L6.37253622,9 C5.68518253,10.2490078 4.5151325,11 2.81250637,11 C1.56250354,11 0,9.75 0,8.5 L0,5.5 C0,4.25 1.56250354,3 2.81250637,3 C4.5151325,3 5.68518253,3.75099219 6.37253622,5 Z" id="path-1"></path>
        <path d="M4,7 C4,7.55228475 3.55228475,8 3,8 C2.44771525,8 2,7.55228475 2,7 C2,6.44771525 2.44771525,6 3,6 C3.55228475,6 4,6.44771525 4,7 Z" id="path-3"></path>
    </defs>
    <g id="Core/Icons/Workspace/PrimaryKey" stroke="none" stroke-width="1" fill="none" fill-rule="evenodd">
        <mask id="mask-2" fill="white">
            <use xlink:href="#path-1"></use>
        </mask>
        <use id="Shape" fill="#C0C0C0" fill-rule="nonzero" xlink:href="#path-1"></use>
        <g id="Core/Colors/LabelText" mask="url(#mask-2)" fill="#909090">
            <rect id="Rectangle-Copy-4" x="0" y="0" width="15" height="15"></rect>
        </g>
        <mask id="mask-4" fill="white">
            <use xlink:href="#path-3"></use>
        </mask>
        <use id="Shape" fill="#909090" fill-rule="nonzero" xlink:href="#path-3"></use>
        <g id="Core/Colors/LabelText" mask="url(#mask-4)" fill="#909090">
            <g transform="translate(-1.000000, 6.000000)" id="Rectangle-Copy-4">
                <rect x="0" y="0" width="19" height="9"></rect>
            </g>
        </g>
    </g>
</svg>