<?xml version="1.0" encoding="UTF-8"?>
<svg width="22px" height="20px" viewBox="0 0 22 20" version="1.1" xmlns="http://www.w3.org/2000/svg" xmlns:xlink="http://www.w3.org/1999/xlink">
    <!-- Generator: Sketch 55.2 (78181) - https://sketchapp.com -->
    <title>Core/Logo/webservice2</title>
    <desc>Created with Sketch.</desc>
    <g id="Core/Logo/webservice2" stroke="none" stroke-width="1" fill="none" fill-rule="evenodd">
        <g id="Group" transform="translate(0.000000, 4.000000)">
            <rect id="Rectangle" fill="#000000" x="0" y="0" width="22" height="12" rx="2"></rect>
            <path d="M2,0 L20,0 C21.1045695,-2.02906125e-16 22,0.8954305 22,2 L22,10 C22,11.1045695 21.1045695,12 20,12 L2,12 C0.8954305,12 1.3527075e-16,11.1045695 0,10 L0,2 C-1.3527075e-16,0.8954305 0.8954305,2.02906125e-16 2,0 Z M2,2.09742896 L4.61215255,10.902571 L6.0258565,10.902571 L7.88170653,4.88633288 C7.90497749,4.80920124 7.92921771,4.7259815 7.95442793,4.63667118 C7.97963814,4.54736085 8.00387836,4.45196262 8.02714932,4.35047361 C8.05042028,4.45196262 8.07466051,4.54736085 8.09987072,4.63667118 C8.12508093,4.7259815 8.14932115,4.80920124 8.17259211,4.88633288 L10.010989,10.902571 L11.424693,10.902571 L14.0368455,2.09742896 L12.8093083,2.09742896 C12.6774395,2.09742896 12.5649649,2.13396445 12.4718811,2.20703654 C12.3787972,2.28010862 12.3186815,2.36738786 12.291532,2.46887686 L10.8603749,7.73612991 C10.829347,7.86197627 10.7992891,7.9979695 10.7702004,8.14411367 C10.7411117,8.29025783 10.712993,8.44248906 10.6858436,8.60081191 C10.6237877,8.28416621 10.5500974,7.99594176 10.4647705,7.73612991 L8.82417582,2.46887686 C8.78926938,2.35520917 8.72721441,2.26488531 8.63800905,2.19790257 C8.54880369,2.13091983 8.43632906,2.09742896 8.30058177,2.09742896 L7.84098255,2.09742896 C7.70911376,2.09742896 7.59760873,2.1359942 7.50646412,2.21312585 C7.41531952,2.29025749 7.35423416,2.37550698 7.32320621,2.46887686 L5.67097608,7.73612991 C5.62831265,7.86603583 5.58855868,8.00710343 5.55171299,8.15933694 C5.5148673,8.31157045 5.48093099,8.47293555 5.44990304,8.64343708 C5.42275358,8.47293555 5.39463492,8.31157045 5.36554622,8.15933694 C5.33645751,8.00710343 5.30446042,7.86603583 5.26955398,7.73612991 L3.8383969,2.46887686 C3.80736895,2.35520917 3.74628358,2.26488531 3.65513898,2.19790257 C3.56399437,2.13091983 3.45055013,2.09742896 3.31480284,2.09742896 L2,2.09742896 Z M19.4647705,3.69891746 L19.8487395,2.9255751 C19.553974,2.63328677 19.1971579,2.4059548 18.7782805,2.2435724 C18.3594032,2.08118999 17.9017478,2 17.4053006,2 C16.9670308,2 16.577248,2.07104124 16.2359405,2.21312585 C15.8946331,2.35521045 15.6066592,2.54397717 15.3720103,2.77943166 C15.1373615,3.01488616 14.9589534,3.28484286 14.8367809,3.58930988 C14.7146083,3.89377689 14.6535229,4.20635834 14.6535229,4.5270636 C14.6535229,4.92896006 14.7087907,5.26691338 14.8193277,5.54093369 C14.9298648,5.81495401 15.0762758,6.04330085 15.258565,6.22598106 C15.4408542,6.40866127 15.6483505,6.55683299 15.8810601,6.67050068 C16.1137697,6.78416836 16.3503543,6.88159635 16.5908209,6.96278755 C16.8312876,7.04397876 17.0678721,7.11907949 17.3005818,7.18809202 C17.5332914,7.25710454 17.7407877,7.34133915 17.9230769,7.44079838 C18.1053661,7.5402576 18.2517771,7.66305746 18.3623142,7.80920162 C18.4728512,7.95534579 18.5281189,8.14411251 18.5281189,8.37550744 C18.5281189,8.78958258 18.4059482,9.10723841 18.1616031,9.32848444 C17.917258,9.54973047 17.5720772,9.66035183 17.1260504,9.66035183 C16.8351634,9.66035183 16.5859739,9.61874196 16.3784745,9.53552097 C16.170975,9.45229999 15.9906278,9.35994638 15.8374273,9.25845737 C15.6842268,9.15696837 15.5513903,9.06461476 15.438914,8.98139378 C15.3264377,8.89817279 15.2217199,8.85656292 15.1247576,8.85656292 C15.0510662,8.85656292 14.9841632,8.87584554 14.9240465,8.91441137 C14.8639299,8.95297719 14.8125406,9.00067631 14.7698772,9.05751015 L14.3160957,9.84303112 C14.4789924,10.0175922 14.6641877,10.1759127 14.8716871,10.3179973 C15.0791866,10.4600819 15.3021966,10.5818669 15.540724,10.6833559 C15.7792514,10.7848449 16.0284408,10.8629903 16.2882999,10.9177943 C16.548159,10.9725984 16.8118927,11 17.0795087,11 C17.544928,11 17.9579814,10.9259141 18.3186813,10.7777402 C18.6793812,10.6295662 18.9848081,10.4265913 19.2349709,10.1688092 C19.4851338,9.91102713 19.6751771,9.60859443 19.8051067,9.26150203 C19.9350362,8.91440963 20,8.54195057 20,8.14411367 C20,7.77875325 19.9447323,7.46820155 19.8341952,7.21244926 C19.7236581,6.95669696 19.5772472,6.74052862 19.394958,6.56393775 C19.2126688,6.38734688 19.0051725,6.24120491 18.7724628,6.12550744 C18.5397532,6.00980998 18.302199,5.90832249 18.0597931,5.82104195 C17.8173873,5.7337614 17.5798331,5.65155654 17.3471235,5.5744249 C17.1144138,5.49729325 16.9069175,5.41001402 16.7246283,5.31258457 C16.5423391,5.21515513 16.3959282,5.09742965 16.2853911,4.9594046 C16.174854,4.82137955 16.1195863,4.64885083 16.1195863,4.44181326 C16.1195863,4.27943085 16.1467353,4.13024425 16.2010343,3.99424899 C16.2553332,3.85825372 16.3377499,3.74154311 16.448287,3.64411367 C16.5588241,3.54668422 16.6945693,3.47056861 16.8555268,3.41576455 C17.0164843,3.36096048 17.2055581,3.33355886 17.4227537,3.33355886 C17.6632203,3.33355886 17.8716863,3.36501998 18.0481577,3.42794317 C18.2246292,3.49086635 18.378797,3.56089271 18.5106658,3.63802436 C18.6425346,3.715156 18.7569484,3.78518236 18.8539108,3.84810555 C18.9508731,3.91102873 19.0381379,3.94248985 19.1157078,3.94248985 C19.1932777,3.94248985 19.2601807,3.9242221 19.3164189,3.88768606 C19.372657,3.85115002 19.4221071,3.78822778 19.4647705,3.69891746 Z" id="Combined-Shape" fill="#FFFFFF"></path>
        </g>
    </g>
</svg>