<?xml version="1.0" encoding="UTF-8"?>
<svg width="12px" height="12px" viewBox="0 0 12 12" version="1.1" xmlns="http://www.w3.org/2000/svg" xmlns:xlink="http://www.w3.org/1999/xlink">
    <title>Icons/Notifications/warning Copy_inTab</title>
    <g id="Dataset-level-ver-4.2.0" stroke="none" stroke-width="1" fill="none" fill-rule="evenodd">
        <g id="ICSV_02" transform="translate(-393.000000, -136.000000)" fill="#D0021B">
            <g id="tab-bar" transform="translate(20.000000, 120.000000)">
                <g id="error-tab" transform="translate(373.000000, 14.000000)">
                    <g id="Icons/Notifications/warning-Copy" transform="translate(0.000000, 2.000000)">
                        <path d="M8.15384615,0.75 L8.153,0.8 L8.18931138,0.764690178 L11.2353098,3.81068862 L11.199,3.846 L11.25,3.84615385 L11.25,8.15384615 L11.199,8.153 L11.2353098,8.18931138 L8.18931138,11.2353098 L8.153,11.199 L8.15384615,11.25 L3.84615385,11.25 L3.846,11.199 L3.81068862,11.2353098 L0.764690178,8.18931138 L0.8,8.153 L0.75,8.15384615 L0.75,3.84615385 L0.8,3.846 L0.764690178,3.81068862 L3.81068862,0.764690178 L3.846,0.8 L3.84615385,0.75 L8.15384615,0.75 Z M6.62389744,7.7607094 L5.37604274,7.7607094 L5.31478058,7.76650628 C5.25565919,7.77809722 5.20295726,7.80706197 5.15664957,7.85332479 C5.09490598,7.91506838 5.06403419,7.98817949 5.06403419,8.07265812 L5.06403419,8.07265812 L5.06403419,9.16453846 L5.06982265,9.22577631 C5.08139957,9.28489209 5.11034188,9.33763889 5.15664957,9.38399145 C5.21845299,9.44561538 5.29150427,9.47654701 5.37604274,9.47654701 L5.37604274,9.47654701 L6.62401709,9.47654701 L6.685211,9.47075107 C6.74428472,9.45916293 6.79699786,9.4302094 6.84335043,9.38399145 C6.90503419,9.32218803 6.93590598,9.24901709 6.93590598,9.16453846 L6.93590598,9.16453846 L6.93590598,8.07265812 L6.93010817,8.01143056 C6.91851442,7.9523344 6.88953846,7.89963248 6.84323077,7.85332479 C6.78148718,7.7915812 6.70837607,7.7607094 6.62389744,7.7607094 L6.62389744,7.7607094 Z M6.77987179,2.61319658 L5.22006838,2.61319658 L5.15899693,2.61899346 C5.10021207,2.6305844 5.04828419,2.65954915 5.00318803,2.70581197 C4.94305983,2.76755556 4.91464103,2.8407265 4.91787179,2.92520513 L4.91787179,2.92520513 L5.05434188,6.66876923 L5.06239824,6.73000521 C5.07608974,6.78911538 5.10669231,6.84183974 5.15425641,6.88810256 C5.21761538,6.94984615 5.29150427,6.98077778 5.37604274,6.98077778 L5.37604274,6.98077778 L6.62401709,6.98077778 L6.68535871,6.97497997 C6.7447297,6.96338622 6.79819444,6.93441026 6.84580342,6.88810256 C6.90916239,6.8264188 6.94236752,6.75324786 6.94571795,6.66876923 L6.94571795,6.66876923 L7.08212821,2.92520513 L7.07866653,2.86397663 C7.06923504,2.80487767 7.04190812,2.75216453 6.99681197,2.70581197 C6.93668376,2.64412821 6.86441026,2.61319658 6.77987179,2.61319658 L6.77987179,2.61319658 Z" id="Combined-Shape"></path>
                    </g>
                </g>
            </g>
        </g>
    </g>
</svg>