<?xml version="1.0" encoding="UTF-8"?>
<svg width="12px" height="11px" viewBox="0 0 12 11" version="1.1" xmlns="http://www.w3.org/2000/svg" xmlns:xlink="http://www.w3.org/1999/xlink">
    <title>Icons/Notifications/warning_inTab</title>
    <g id="Dataset-level-ver-4.2.0" stroke="none" stroke-width="1" fill="none" fill-rule="evenodd">
        <g id="ICSV_02" transform="translate(-166.000000, -137.000000)" fill="#FFC12F" stroke="#DFA023" stroke-width="0.5">
            <g id="tab-bar" transform="translate(20.000000, 120.000000)">
                <g id="Warning-tab" transform="translate(146.000000, 14.000000)">
                    <g id="Group" transform="translate(0.000000, 2.500000)">
                        <g id="warning18" transform="translate(0.000000, 1.500000)">
                            <path d="M5.99992694,0.0152438356 C6.13881279,0.0152438356 6.26783562,0.0500767123 6.38677626,0.119742466 C6.50600913,0.189336986 6.59923288,0.284147945 6.66673973,0.40410411 L6.66673973,0.40410411 L11.2379909,8.57558356 C11.3770228,8.8194137 11.3730776,9.06310137 11.2262283,9.30693151 C11.1586484,9.41905205 11.0665205,9.50809315 10.9494064,9.57376986 C10.8322922,9.63958904 10.706411,9.67256986 10.5713242,9.67256986 L10.5713242,9.67256986 L1.42860274,9.67256986 C1.2936621,9.67256986 1.16770776,9.63958904 1.05059361,9.57376986 C0.933552511,9.50809315 0.841278539,9.41905205 0.773771689,9.30693151 C0.626922374,9.0631726 0.622977169,8.8194137 0.761863014,8.57558356 L0.761863014,8.57558356 L5.33326027,0.40410411 C5.40069406,0.284147945 5.49399087,0.189336986 5.61300457,0.119742466 C5.73201826,0.0501479452 5.8610411,0.0152438356 5.99992694,0.0152438356 Z M6.57147032,6.70109041 L5.4286758,6.70109041 C5.37702283,6.70109041 5.33245662,6.71939726 5.29475799,6.75615342 C5.25705936,6.79298082 5.23821005,6.83835616 5.23821005,6.89249315 L5.23821005,6.89249315 L5.23821005,7.99517808 C5.23821005,8.04931507 5.25705936,8.09469041 5.29475799,8.13151781 C5.33245662,8.16827397 5.37709589,8.18658082 5.4286758,8.18658082 L5.4286758,8.18658082 L6.57154338,8.18658082 C6.62319635,8.18658082 6.66783562,8.16827397 6.70553425,8.13151781 C6.74308676,8.09476164 6.76200913,8.04931507 6.76193607,7.99517808 L6.76193607,7.99517808 L6.76193607,6.89249315 C6.76193607,6.83835616 6.74308676,6.79298082 6.70546119,6.75615342 C6.66776256,6.71939726 6.62312329,6.70109041 6.57147032,6.70109041 L6.57147032,6.70109041 Z M6.65490411,2.98679452 L5.34538813,2.98679452 C5.30169863,2.98679452 5.25406393,3.00809315 5.20248402,3.05061918 C5.16281279,3.07768767 5.14294064,3.11829041 5.14294064,3.17249863 L5.14294064,3.17249863 L5.24412785,5.82456986 C5.24412785,5.86339178 5.26392694,5.89523288 5.30367123,5.92044932 C5.34334247,5.94559452 5.39097717,5.95813151 5.44650228,5.95813151 L5.44650228,5.95813151 L6.54772603,5.95813151 C6.6033242,5.95813151 6.64986301,5.94566575 6.6876347,5.92044932 C6.72526027,5.89530411 6.74608219,5.86339178 6.75017352,5.82471233 L6.75017352,5.82471233 L6.85720548,3.16088767 C6.85720548,3.11444384 6.83747945,3.07768767 6.79780822,3.05061918 C6.74622831,3.00802192 6.69859361,2.98679452 6.65490411,2.98679452 L6.65490411,2.98679452 Z" id="Shape"></path>
                        </g>
                    </g>
                </g>
            </g>
        </g>
    </g>
</svg>