<?xml version="1.0" encoding="UTF-8"?>
<svg width="4px" height="16px" viewBox="0 0 4 16" version="1.1" xmlns="http://www.w3.org/2000/svg" xmlns:xlink="http://www.w3.org/1999/xlink">
    <!-- Generator: Sketch 55.2 (78181) - https://sketchapp.com -->
    <title>Combined Shape</title>
    <desc>Created with Sketch.</desc>
    <g id="Symbols" stroke="none" stroke-width="1" fill="none" fill-rule="evenodd">
        <g id="Icons/Vertical-Resize" fill="#979797">
            <path d="M-5.5,9 L9.5,9 C9.77614237,9 10,9.22385763 10,9.5 C10,9.77614237 9.77614237,10 9.5,10 L-5.5,10 C-5.77614237,10 -6,9.77614237 -6,9.5 C-6,9.22385763 -5.77614237,9 -5.5,9 Z M-5.5,6 L9.5,6 C9.77614237,6 10,6.22385763 10,6.5 C10,6.77614237 9.77614237,7 9.5,7 L-5.5,7 C-5.77614237,7 -6,6.77614237 -6,6.5 C-6,6.22385763 -5.77614237,6 -5.5,6 Z" id="Combined-Shape" transform="translate(2.000000, 8.000000) rotate(90.000000) translate(-2.000000, -8.000000) "></path>
        </g>
    </g>
</svg>