<?xml version="1.0" encoding="UTF-8"?>
<svg width="16px" height="16px" viewBox="0 0 16 16" version="1.1" xmlns="http://www.w3.org/2000/svg" xmlns:xlink="http://www.w3.org/1999/xlink">
    <!-- Generator: Sketch 60.1 (88133) - https://sketch.com -->
    <title>Icons/TransformationFunctions/Aggregate</title>
    <desc>Created with Sketch.</desc>
    <g id="Icons/TransformationFunctions/Aggregate" stroke="none" stroke-width="1" fill="none" fill-rule="evenodd">
        <path d="M7.6129898,1.3870102 C7.6129898,1.17335596 7.78634576,1 8,1 C8.21365424,1 8.3870102,1.17335596 8.3870102,1.3870102 L8.3870102,4.05983447 L9.52991723,2.91692743 C9.68119711,2.76564756 9.92588823,2.76564756 10.0771681,2.91692743 C10.228448,3.06820731 10.228448,3.31289843 10.0771681,3.46417831 L8.27362544,5.26772098 C8.23815644,5.30318998 8.19542532,5.33151405 8.14759794,5.35150517 C8.10024963,5.37091022 8.05005626,5.38110574 8,5.38110574 C7.94994374,5.38110574 7.89975037,5.37091022 7.85184329,5.35127388 C7.80457468,5.33151405 7.76184356,5.30318998 7.72637456,5.26772098 L5.92283189,3.46417831 C5.77155201,3.31289843 5.77155201,3.06820731 5.92283189,2.91692743 C6.07411177,2.76564756 6.31880289,2.76564756 6.47008277,2.91692743 L7.6129898,4.05983447 L7.6129898,1.3870102 Z M6.47008277,13.0830726 C6.31880289,13.2343524 6.07411177,13.2343524 5.92283189,13.0830726 C5.77155201,12.9317927 5.77155201,12.6871016 5.92283189,12.5358217 L7.72607397,10.7325796 C7.76202018,10.6966334 7.80459021,10.6683185 7.85207439,10.6486299 L7.92491511,10.6266053 C7.99923853,10.6119362 8.07700867,10.6192719 8.14792561,10.6486299 C8.19575747,10.6684626 8.23867428,10.6969429 8.27392603,10.7325796 L10.0771681,12.5358217 C10.228448,12.6871016 10.228448,12.9317927 10.0771681,13.0830726 C10.0036929,13.1565478 9.90539905,13.1964573 9.80354267,13.1964573 C9.7016863,13.1964573 9.60339244,13.1565478 9.52991723,13.0830726 L8.3870102,11.9401655 L8.3870102,14.6129898 C8.3870102,14.8268542 8.21374474,15 8,15 C7.78625526,15 7.6129898,14.8268542 7.6129898,14.6129898 L7.6129898,11.9401655 L6.47008277,13.0830726 Z M4.05983447,7.6129898 L2.91692743,6.47008277 C2.76564756,6.31880289 2.76564756,6.07411177 2.91692743,5.92283189 C3.06820731,5.77155201 3.31289843,5.77155201 3.46417831,5.92283189 L5.26772098,7.72637456 C5.30318998,7.76184356 5.33151405,7.80457468 5.35138985,7.85212207 C5.39050212,7.94661113 5.39050212,8.05300185 5.35127388,8.14815671 C5.33151405,8.19542532 5.30318998,8.23815644 5.26772098,8.27362544 L3.46417831,10.0771681 C3.3907031,10.1506433 3.29240925,10.1905529 3.19055287,10.1905529 C3.0886965,10.1905529 2.99040264,10.1506433 2.91692743,10.0771681 C2.76564756,9.92588823 2.76564756,9.68119711 2.91692743,9.52991723 L4.05983447,8.3870102 L1.3870102,8.3870102 C1.17335596,8.3870102 1,8.21365424 1,8 C1,7.78634576 1.17335596,7.6129898 1.3870102,7.6129898 L4.05983447,7.6129898 Z M13.0830726,5.92283189 C13.2343524,6.07411177 13.2343524,6.31880289 13.0830726,6.47008277 L11.9401655,7.6129898 L14.6129898,7.6129898 C14.826644,7.6129898 15,7.78634576 15,8 C15,8.21365424 14.826644,8.3870102 14.6129898,8.3870102 L11.9401655,8.3870102 L13.0830726,9.52991723 C13.2343524,9.68119711 13.2343524,9.92588823 13.0830726,10.0771681 C13.0095974,10.1506433 12.9113035,10.1905529 12.8094471,10.1905529 C12.7075908,10.1905529 12.6092969,10.1506433 12.5358217,10.0771681 L10.732279,8.27362544 C10.69681,8.23815644 10.668486,8.19542532 10.6486102,8.14787793 C10.6094979,8.05338887 10.6094979,7.94699815 10.6487261,7.85184329 C10.668486,7.80457468 10.69681,7.76184356 10.732279,7.72637456 L12.5358217,5.92283189 C12.6871016,5.77155201 12.9317927,5.77155201 13.0830726,5.92283189 Z M8,6.27160494 C8.95303704,6.27160494 9.72839506,7.04696296 9.72839506,8 C9.72839506,8.95303704 8.95303704,9.72839506 8,9.72839506 C7.04696296,9.72839506 6.27160494,8.95303704 6.27160494,8 C6.27160494,7.04696296 7.04696296,6.27160494 8,6.27160494 Z M8,6.96296296 C7.42824691,6.96296296 6.96296296,7.42824691 6.96296296,8 C6.96296296,8.57175309 7.42824691,9.03703704 8,9.03703704 C8.57175309,9.03703704 9.03703704,8.57175309 9.03703704,8 C9.03703704,7.42824691 8.57175309,6.96296296 8,6.96296296 Z" id="Combined-Shape" fill="#FFFFFF"></path>
    </g>
</svg>