<?xml version="1.0" encoding="UTF-8"?>
<svg width="16px" height="16px" viewBox="0 0 16 16" version="1.1" xmlns="http://www.w3.org/2000/svg" xmlns:xlink="http://www.w3.org/1999/xlink">
    <!-- Generator: Sketch 60.1 (88133) - https://sketch.com -->
    <title>Icons/TransformationFunctions/Constant</title>
    <desc>Created with Sketch.</desc>
    <g id="Icons/TransformationFunctions/Constant" stroke="none" stroke-width="1" fill="none" fill-rule="evenodd">
        <path d="M8.10628743,12.8181818 C7.14520478,12.8181818 6.27620149,12.607988 5.4992515,12.1875942 C4.7223015,11.7672003 4.11152917,11.1840821 3.66691617,10.438222 C3.22230317,9.69236192 3,8.84932665 3,7.90909091 C3,6.96885517 3.22230317,6.1258199 3.66691617,5.37995982 C4.11152917,4.63409974 4.7223015,4.05098151 5.4992515,3.63058764 C6.27620149,3.21019378 7.14969575,3 8.11976048,3 C8.93712984,3 9.6758949,3.14464948 10.3360778,3.43395279 C10.9962608,3.72325609 11.550896,4.13912336 12,4.68156705 L10.5988024,5.98342541 C9.96107466,5.2420857 9.1706634,4.8714214 8.22754491,4.8714214 C7.64370966,4.8714214 7.12275678,5.00024984 6.66467066,5.2579106 C6.20658454,5.51557135 5.84955218,5.87493491 5.59356287,6.33601205 C5.33757357,6.7970892 5.20958084,7.32144357 5.20958084,7.90909091 C5.20958084,8.49673825 5.33757357,9.02109262 5.59356287,9.48216976 C5.84955218,9.94324691 6.20658454,10.3026105 6.66467066,10.5602712 C7.12275678,10.817932 7.64370966,10.9467604 8.22754491,10.9467604 C9.1706634,10.9467604 9.96107466,10.5715758 10.5988024,9.82119538 L12,11.1230537 C11.550896,11.6745382 10.9940153,12.0949257 10.3293413,12.384229 C9.66466734,12.6735323 8.92365678,12.8181818 8.10628743,12.8181818 Z" id="C" fill="#FFFFFF"></path>
    </g>
</svg>