<?xml version="1.0" encoding="UTF-8"?>
<svg width="16px" height="16px" viewBox="0 0 16 16" version="1.1" xmlns="http://www.w3.org/2000/svg" xmlns:xlink="http://www.w3.org/1999/xlink">
    <!-- Generator: Sketch 60.1 (88133) - https://sketch.com -->
    <title>Icons/TransformationFunctions/Conversion</title>
    <desc>Created with Sketch.</desc>
    <g id="Icons/TransformationFunctions/Conversion" stroke="none" stroke-width="1" fill="none" fill-rule="evenodd">
        <g id="transfer" transform="translate(2.000000, 2.000000)" fill="#FFFFFF">
            <path d="M2.88705469,5.6143125 C3.10007812,5.40128906 3.44545312,5.40128906 3.65842969,5.6143125 C3.87145312,5.82733594 3.87145312,6.17266406 3.65842969,6.3856875 L3.65842969,6.3856875 L1.86232031,8.18184375 L11.4545625,8.18184375 C11.7558047,8.18184375 12.0000234,8.4260625 12.0000234,8.72728125 C12.0000234,9.02852344 11.7558047,9.27274219 11.4545625,9.27274219 L11.4545625,9.27274219 L1.86229687,9.27274219 L3.65840625,11.0688516 C3.87142969,11.2818516 3.87142969,11.6272031 3.65840625,11.8402266 C3.55195312,11.9467734 3.41233594,12 3.27274219,12 C3.13314844,12 2.99357812,11.9467734 2.88703125,11.8402266 L2.88703125,11.8402266 L0.159773437,9.11294531 C-0.05325,8.89992188 -0.05325,8.55459375 0.159773437,8.34157031 L0.159773437,8.34157031 Z M8.34159375,0.159773438 C8.55461719,-0.05325 8.89999219,-0.05325 9.11296875,0.159773438 L9.11296875,0.159773438 L11.8402266,2.88703125 C12.05325,3.10005469 12.05325,3.44540625 11.8402266,3.65842969 L11.8402266,3.65842969 L9.11294531,6.38571094 C9.00649219,6.49225781 8.866875,6.54548438 8.72728125,6.54548438 C8.5876875,6.54548438 8.44809375,6.49223438 8.34161719,6.38573438 C8.12859375,6.17273438 8.12859375,5.82738281 8.34161719,5.61435938 L8.34161719,5.61435938 L10.1377266,3.81822656 L0.545484375,3.81822656 C0.244242187,3.81822656 2.34374978e-05,3.57400781 2.34374978e-05,3.27276563 C2.34374978e-05,2.97152344 0.244242187,2.72730469 0.545484375,2.72730469 L0.545484375,2.72730469 L10.1377266,2.72730469 L8.34159375,0.931148438 C8.12857031,0.718125 8.12857031,0.372796875 8.34159375,0.159773438 Z" id="Combined-Shape"></path>
        </g>
    </g>
</svg>