<?xml version="1.0" encoding="UTF-8"?>
<svg width="16px" height="16px" viewBox="0 0 16 16" version="1.1" xmlns="http://www.w3.org/2000/svg" xmlns:xlink="http://www.w3.org/1999/xlink">
    <!-- Generator: Sketch 60.1 (88133) - https://sketch.com -->
    <title>Icons/TransformationFunctions/CrossReference</title>
    <desc>Created with Sketch.</desc>
    <g id="Icons/TransformationFunctions/CrossReference" stroke="none" stroke-width="1" fill="none" fill-rule="evenodd">
        <path d="M12.2857143,2 C13.2324881,2 14,2.76751186 14,3.71428571 L14,11.4285714 C14,12.3753453 13.2324881,13.1428571 12.2857143,13.1428571 L3.71428571,13.1428571 C2.76751186,13.1428571 2,12.3753453 2,11.4285714 L2,3.71428571 C2,2.76751186 2.76751186,2 3.71428571,2 L12.2857143,2 Z M12.2857143,2.85714286 L3.71428571,2.85714286 C3.24089879,2.85714286 2.85714286,3.24089879 2.85714286,3.71428571 L2.85714286,11.4285714 C2.85714286,11.9019584 3.24089879,12.2857143 3.71428571,12.2857143 L12.2857143,12.2857143 C12.7591012,12.2857143 13.1428571,11.9019584 13.1428571,11.4285714 L13.1428571,3.71428571 C13.1428571,3.24089879 12.7591012,2.85714286 12.2857143,2.85714286 Z M11,9.28571429 C11.4733869,9.28571429 11.8571429,9.66947021 11.8571429,10.1428571 C11.8571429,10.6162441 11.4733869,11 11,11 L7.57142857,11 C7.09804164,11 6.71428571,10.6162441 6.71428571,10.1428571 C6.71428571,9.66947021 7.09804164,9.28571429 7.57142857,9.28571429 L11,9.28571429 Z M5,9.28571429 C5.47338693,9.28571429 5.85714286,9.66947021 5.85714286,10.1428571 C5.85714286,10.6162441 5.47338693,11 5,11 C4.52661307,11 4.14285714,10.6162441 4.14285714,10.1428571 C4.14285714,9.66947021 4.52661307,9.28571429 5,9.28571429 Z M11,6.71428571 C11.4733869,6.71428571 11.8571429,7.09804164 11.8571429,7.57142857 C11.8571429,8.0448155 11.4733869,8.42857143 11,8.42857143 L7.57142857,8.42857143 C7.09804164,8.42857143 6.71428571,8.0448155 6.71428571,7.57142857 C6.71428571,7.09804164 7.09804164,6.71428571 7.57142857,6.71428571 L11,6.71428571 Z M5,6.71428571 C5.47338693,6.71428571 5.85714286,7.09804164 5.85714286,7.57142857 C5.85714286,8.0448155 5.47338693,8.42857143 5,8.42857143 C4.52661307,8.42857143 4.14285714,8.0448155 4.14285714,7.57142857 C4.14285714,7.09804164 4.52661307,6.71428571 5,6.71428571 Z M11,4.14285714 C11.4733869,4.14285714 11.8571429,4.52661307 11.8571429,5 C11.8571429,5.47338693 11.4733869,5.85714286 11,5.85714286 L7.57142857,5.85714286 C7.09804164,5.85714286 6.71428571,5.47338693 6.71428571,5 C6.71428571,4.52661307 7.09804164,4.14285714 7.57142857,4.14285714 L11,4.14285714 Z M5,4.14285714 C5.47338693,4.14285714 5.85714286,4.52661307 5.85714286,5 C5.85714286,5.47338693 5.47338693,5.85714286 5,5.85714286 C4.52661307,5.85714286 4.14285714,5.47338693 4.14285714,5 C4.14285714,4.52661307 4.52661307,4.14285714 5,4.14285714 Z" id="Combined-Shape" fill="#FFFFFF"></path>
    </g>
</svg>