<?xml version="1.0" encoding="UTF-8"?>
<svg width="16px" height="16px" viewBox="0 0 16 16" version="1.1" xmlns="http://www.w3.org/2000/svg" xmlns:xlink="http://www.w3.org/1999/xlink">
    <!-- Generator: Sketch 60.1 (88133) - https://sketch.com -->
    <title>Icons/TransformationFunctions/Split</title>
    <desc>Created with Sketch.</desc>
    <g id="Icons/TransformationFunctions/Split" stroke="none" stroke-width="1" fill="none" fill-rule="evenodd">
        <path d="M15,3.57661439 L12.4196762,1 L9.83945938,3.57661439 L10.6135351,4.34960938 L11.8723575,3.09254456 L11.8723575,5.29756165 C11.8723575,6.09469603 11.5264461,6.85134889 10.9232938,7.37344362 L8.77937032,9.22940065 C8.46704461,9.49974059 8.20392089,9.81323242 7.99545415,10.1562042 C7.79126588,9.81173705 7.53284844,9.49963379 7.22597774,9.23410033 L5.07670621,7.37344362 C4.47355394,6.85134889 4.12753555,6.09469603 4.12753555,5.29756165 L4.12753555,3.09254456 L5.38646486,4.34960938 L6.16054062,3.57661439 L3.58021683,1 L1,3.57661439 L1.77407574,4.34960938 L3.03289812,3.09254456 L3.03289812,5.29756165 C3.03289812,6.41192627 3.51646816,7.46957396 4.3596406,8.19952393 L6.50891213,10.0600739 C7.09708991,10.5692444 7.43604887,11.3222656 7.43893682,12.1242065 L7.43893682,15 L8.53357425,15 L8.53357425,12.1312561 C8.53357425,11.3417053 8.88451282,10.5850525 9.49643592,10.0553742 L11.6403594,8.19952393 C12.4835318,7.46957396 12.9669949,6.41192627 12.9669949,5.29756165 L12.9669949,3.09254456 L14.2259243,4.34960938 L15,3.57661439 Z" id="Path" fill="#FFFFFF" transform="translate(8.000000, 8.000000) rotate(90.000000) translate(-8.000000, -8.000000) "></path>
    </g>
</svg>