<?xml version="1.0" encoding="UTF-8"?>
<svg width="16px" height="14px" viewBox="0 0 16 14" version="1.1" xmlns="http://www.w3.org/2000/svg" xmlns:xlink="http://www.w3.org/1999/xlink">
    <!-- Generator: Sketch 58 (84663) - https://sketch.com -->
    <title>Icons/Notifications/warning Copy</title>
    <desc>Created with Sketch.</desc>
    <g id="WIP" stroke="none" stroke-width="1" fill="none" fill-rule="evenodd">
        <g id="DINT-2020-[2]" transform="translate(-736.000000, -527.000000)" stroke="#DFA023" stroke-width="0.2">
            <g id="Icons/Notifications/warning-Copy" transform="translate(736.000000, 528.000000)">
                <g id="warning18">
                    <path d="M14.9839878,11.4341114 L8.8889863,0.538805479 C8.79897717,0.378863927 8.67467884,0.252449315 8.51570167,0.159656621 C8.35711416,0.0667689498 8.18508371,0.0203251142 7.99990259,0.0203251142 C7.81472146,0.0203251142 7.64269102,0.0668639269 7.48400609,0.159656621 C7.32532116,0.252449315 7.20092542,0.378863927 7.1110137,0.538805479 L1.01581735,11.4341114 C0.830636225,11.7592183 0.835896499,12.0842301 1.03169559,12.409242 C1.12170472,12.5587361 1.24473668,12.6774575 1.40079148,12.7650265 C1.55694368,12.8527854 1.7248828,12.8967598 1.90480365,12.8967598 L14.0950989,12.8967598 C14.2752146,12.8967598 14.4430563,12.8527854 14.5992085,12.7650265 C14.7553607,12.6774575 14.8781979,12.5587361 14.9683044,12.409242 C15.1641035,12.0841352 15.1693638,11.7592183 14.9839878,11.4341114 L14.9839878,11.4341114 Z" id="Path" fill="#FFFFFF"></path>
                    <path d="M8.94071233,10.8420237 C8.89044749,10.891032 8.83092846,10.9154411 8.76205784,10.9154411 L7.2382344,10.9154411 C7.16946119,10.9154411 7.10994216,10.891032 7.05967732,10.8420237 C7.00941248,10.7929205 6.98428006,10.7324201 6.98428006,10.6602374 L6.98428006,9.18999087 C6.98428006,9.11780822 7.00941248,9.05730776 7.05967732,9.00820457 C7.10994216,8.95919635 7.16936377,8.93478721 7.2382344,8.93478721 L8.76196043,8.93478721 C8.83083105,8.93478721 8.89035008,8.95919635 8.94061492,9.00820457 C8.99078234,9.05730776 9.01591476,9.11780822 9.01591476,9.18999087 L9.01591476,10.6602374 C9.01601218,10.7324201 8.99078234,10.7930155 8.94071233,10.8420237 Z" id="Path" fill="#FFC12F"></path>
                    <path d="M8.91684627,7.89393242 C8.86648402,7.92755434 8.80443227,7.94417534 8.73030137,7.94417534 L7.26200304,7.94417534 C7.18796956,7.94417534 7.12445662,7.92745936 7.07156164,7.89393242 C7.01856925,7.8603105 6.99217047,7.81785571 6.99217047,7.76609315 L6.85725419,4.22999817 C6.85725419,4.15772055 6.88375038,4.10358356 6.93664536,4.06749224 C7.00541857,4.01079087 7.06893151,3.98239269 7.12718417,3.98239269 L8.87320548,3.98239269 C8.93145814,3.98239269 8.99497108,4.01069589 9.06374429,4.06749224 C9.11663927,4.10358356 9.14294064,4.15259178 9.14294064,4.21451689 L9.00023135,7.76628311 C8.99477626,7.81785571 8.9670137,7.86040548 8.91684627,7.89393242 Z" id="Path" fill="#FFC12F"></path>
                </g>
            </g>
        </g>
    </g>
</svg>