<?xml version="1.0" encoding="UTF-8"?>
<svg width="16px" height="14px" viewBox="0 0 16 14" version="1.1" xmlns="http://www.w3.org/2000/svg" xmlns:xlink="http://www.w3.org/1999/xlink">
    <!-- Generator: Sketch 58 (84663) - https://sketch.com -->
    <title>Icons/Notifications/warning</title>
    <desc>Created with Sketch.</desc>
    <g id="WIP" stroke="none" stroke-width="1" fill="none" fill-rule="evenodd">
        <g id="DINT-2020-[2]" transform="translate(-736.000000, -549.000000)" fill="#FFC12F" stroke="#DFA023" stroke-width="0.2">
            <g id="Icons/Notifications/warning" transform="translate(736.000000, 550.000000)">
                <g id="warning18">
                    <path d="M7.99990259,0.0203251142 C8.18508371,0.0203251142 8.35711416,0.0667689498 8.51570167,0.159656621 C8.63493455,0.229251142 8.73466058,0.317757991 8.81504414,0.4251371 L8.8889863,0.538805479 L14.9839878,11.4341114 C15.1693638,11.7592183 15.1641035,12.0841352 14.9683044,12.409242 C14.8781979,12.5587361 14.7553607,12.6774575 14.5992085,12.7650265 C14.4820944,12.8308457 14.3584049,12.8720361 14.2278935,12.8885176 L14.0950989,12.8967598 L1.90480365,12.8967598 C1.7248828,12.8967598 1.55694368,12.8527854 1.40079148,12.7650265 C1.24473668,12.6774575 1.12170472,12.5587361 1.03169559,12.409242 C0.860371385,12.1248566 0.834928463,11.8404712 0.95530156,11.5560222 L1.01581735,11.4341114 L7.1110137,0.538805479 C7.20092542,0.378863927 7.32532116,0.252449315 7.48400609,0.159656621 C7.64269102,0.0668639269 7.81472146,0.0203251142 7.99990259,0.0203251142 Z M8.76196043,8.93478721 L7.2382344,8.93478721 C7.16936377,8.93478721 7.10994216,8.95919635 7.05967732,9.00820457 C7.02616743,9.04094003 7.0038275,9.07874094 6.99265753,9.12169173 L6.98428006,9.18999087 L6.98428006,10.6602374 C6.98428006,10.7324201 7.00941248,10.7929205 7.05967732,10.8420237 C7.09318721,10.8746959 7.13081008,10.8964351 7.17254592,10.9072977 L7.2382344,10.9154411 L8.76205784,10.9154411 C8.83092846,10.9154411 8.89044749,10.891032 8.94071233,10.8420237 C8.97409234,10.8093516 8.99643227,10.7715296 9.0075878,10.7285577 L9.01591476,10.6602374 L9.01591476,9.18999087 C9.01591476,9.11780822 8.99078234,9.05730776 8.94061492,9.00820457 C8.89035008,8.95919635 8.83083105,8.93478721 8.76196043,8.93478721 Z M8.87320548,3.98239269 L7.12718417,3.98239269 C7.06893151,3.98239269 7.00541857,4.01079087 6.93664536,4.06749224 C6.88375038,4.10358356 6.85725419,4.15772055 6.85725419,4.22999817 L6.85725419,4.22999817 L6.99217047,7.76609315 C6.99217047,7.81785571 7.01856925,7.8603105 7.07156164,7.89393242 C7.12445662,7.92745936 7.18796956,7.94417534 7.26200304,7.94417534 L7.26200304,7.94417534 L8.73030137,7.94417534 C8.80443227,7.94417534 8.86648402,7.92755434 8.91684627,7.89393242 C8.9670137,7.86040548 8.99477626,7.81785571 9.00023135,7.76628311 L9.00023135,7.76628311 L9.14294064,4.21451689 C9.14294064,4.15259178 9.11663927,4.10358356 9.06374429,4.06749224 C8.99497108,4.01069589 8.93145814,3.98239269 8.87320548,3.98239269 L8.87320548,3.98239269 Z" id="Shape"></path>
                </g>
            </g>
        </g>
    </g>
</svg>