<?xml version="1.0" encoding="UTF-8"?>
<svg width="30px" height="28px" viewBox="0 0 30 28" version="1.1" xmlns="http://www.w3.org/2000/svg" xmlns:xlink="http://www.w3.org/1999/xlink">
    <title>Icons/Notifications/warninglarger</title>
    <g id="WIP" stroke="none" stroke-width="1" fill="none" fill-rule="evenodd" opacity="0.85">
        <g id="DINT-2020-[1]" transform="translate(-1067.000000, -813.000000)" fill="#FFB72F" stroke="#DFA023" stroke-width="0.5">
            <g id="Notifications-/-Notification-/-Warning" transform="translate(1056.000000, 795.000000)">
                <g id="Group" transform="translate(10.000000, 15.000000)">
                    <g id="warning18" transform="translate(0.000000, 4.000000)">
                        <path d="M15.9998052,0.0406502283 C16.3701674,0.0406502283 16.7142283,0.1335379 17.0314033,0.319313242 C17.3493577,0.50489863 17.5979543,0.757727854 17.7779726,1.07761096 L17.7779726,1.07761096 L29.9679756,22.8682228 C30.3387275,23.5184365 30.328207,24.1682703 29.9366088,24.818484 C29.7563957,25.1174721 29.5107215,25.3549151 29.198417,25.530053 C28.8861126,25.7055708 28.5504292,25.7935196 28.1901979,25.7935196 L28.1901979,25.7935196 L3.80960731,25.7935196 C3.4497656,25.7935196 3.11388737,25.7055708 2.80158295,25.530053 C2.48947336,25.3549151 2.24340944,25.1174721 2.06339117,24.818484 C1.671793,24.1684603 1.66127245,23.5184365 2.0316347,22.8682228 L2.0316347,22.8682228 L14.2220274,1.07761096 C14.4018508,0.757727854 14.6506423,0.50489863 14.9680122,0.319313242 C15.285382,0.133727854 15.6294429,0.0406502283 15.9998052,0.0406502283 Z M17.8094125,18 L14.7619604,18 C14.6242192,18 14.505376,18.0492951 14.4048463,18.1482689 C14.3043166,18.2474345 14.2540518,18.3696173 14.2540518,18.5153927 L14.2540518,18.5153927 L14.2540518,21.4846073 C14.2540518,21.6303827 14.3043166,21.7525655 14.4048463,21.8517311 C14.505376,21.9507049 14.624414,22 14.7619604,22 L14.7619604,22 L17.8096073,22 C17.9473486,22 18.0663866,21.9507049 18.1669163,21.8517311 C18.2670563,21.7527573 18.317516,21.6303827 18.317516,21.4846073 L18.3173212,21.4846073 L18.3173212,18.5153927 C18.3173212,18.3696173 18.2670563,18.2474345 18.1667215,18.1482689 C18.0661918,18.0492951 17.9471537,18 17.8094125,18 L17.8094125,18 Z M18.0319026,6 L14.53986,6 C14.4233546,6 14.2963288,6.07168029 14.1587823,6.21480114 C14.0529924,6.30589984 14,6.44254789 14,6.62498502 L14,6.62498502 L14.2698326,15.5504998 C14.2698326,15.6811546 14.3226301,15.7883154 14.4286149,15.873181 C14.5344049,15.9578069 14.6614307,16 14.8094977,16 L14.8094977,16 L17.7460944,16 C17.8943562,16 18.0184597,15.9580467 18.1191842,15.873181 C18.219519,15.7885551 18.2750441,15.6811546 18.2859543,15.5509793 L18.2859543,15.5509793 L18.5713729,6.58590847 C18.5713729,6.42960228 18.5187702,6.30589984 18.4129802,6.21480114 C18.2754338,6.07144056 18.1484079,6 18.0319026,6 L18.0319026,6 Z" id="Shape"></path>
                    </g>
                </g>
            </g>
        </g>
    </g>
</svg>