<?xml version="1.0" encoding="UTF-8"?>
<svg width="28px" height="28px" viewBox="0 0 28 28" version="1.1" xmlns="http://www.w3.org/2000/svg" xmlns:xlink="http://www.w3.org/1999/xlink">
    <title>Icons/Notifications/Errorlarge</title>
    <g id="WIP" stroke="none" stroke-width="1" fill="none" fill-rule="evenodd" opacity="0.85">
        <g id="DINT-2020-[4]" transform="translate(-1068.000000, -812.000000)" fill="#D0021B">
            <g id="Notifications-/-Notification-/-Warning" transform="translate(1056.000000, 795.000000)">
                <g id="Icons/Notifications/Error" transform="translate(10.000000, 15.000000)">
                    <path d="M21.7435897,2 L21.743,2.134 L21.8381637,2.03917381 L29.9608262,10.1618363 L29.865,10.256 L30,10.2564103 L30,21.7435897 L29.865,21.743 L29.9608262,21.8381637 L21.8381637,29.9608262 L21.743,29.865 L21.7435897,30 L10.2564103,30 L10.256,29.865 L10.1618363,29.9608262 L2.03917381,21.8381637 L2.134,21.743 L2,21.7435897 L2,10.2564103 L2.134,10.256 L2.03917381,10.1618363 L10.1618363,2.03917381 L10.256,2.134 L10.2564103,2 L21.7435897,2 Z M17.6637265,20.6952251 L14.336114,20.6952251 L14.2045079,20.7051194 C14.0339054,20.731499 13.8827852,20.8106074 13.7510655,20.9421994 C13.586416,21.106849 13.5040912,21.301812 13.5040912,21.5270883 L13.5040912,21.5270883 L13.5040912,24.4387692 L13.5139701,24.5703153 C13.5403141,24.7408821 13.6193459,24.8921299 13.7510655,25.0239772 C13.9158746,25.1883077 14.1106781,25.270792 14.336114,25.270792 L14.336114,25.270792 L17.6640456,25.270792 L17.7954972,25.260899 C17.9659414,25.2345244 18.1170872,25.1554416 18.2489345,25.0239772 C18.4134245,24.8591681 18.4957493,24.6640456 18.4957493,24.4387692 L18.4957493,24.4387692 L18.4957493,21.5270883 L18.4858537,21.3955601 C18.4594689,21.2250393 18.380335,21.0739191 18.2486154,20.9421994 C18.0839658,20.7775499 17.8890028,20.6952251 17.6637265,20.6952251 L17.6637265,20.6952251 Z M18.0796581,6.96852422 L13.9201823,6.96852422 L13.8102557,6.97539569 C13.6315625,6.99829693 13.475453,7.07842355 13.3418348,7.21549858 C13.1814929,7.38014815 13.1057094,7.57527066 13.1143248,7.80054701 L13.1143248,7.80054701 L13.478245,17.7833846 L13.4930277,17.9149281 C13.5255594,18.0854847 13.6093903,18.2366815 13.7446838,18.3682735 C13.913641,18.5329231 14.1106781,18.6154074 14.336114,18.6154074 L14.336114,18.6154074 L17.6640456,18.6154074 L17.7957486,18.6055118 C17.9668668,18.5791271 18.1200547,18.4999932 18.2554758,18.3682735 C18.424433,18.2037835 18.5129801,18.008661 18.5219145,17.7833846 L18.5219145,17.7833846 L18.8856752,7.80054701 L18.8830597,7.69043421 C18.8669022,7.51112061 18.7917835,7.35283951 18.6581652,7.21549858 C18.4978234,7.05100855 18.305094,6.96852422 18.0796581,6.96852422 L18.0796581,6.96852422 Z" id="Combined-Shape"></path>
                </g>
            </g>
        </g>
    </g>
</svg>