<?xml version="1.0" encoding="UTF-8"?>
<svg width="14px" height="14px" viewBox="0 0 14 14" version="1.1" xmlns="http://www.w3.org/2000/svg" xmlns:xlink="http://www.w3.org/1999/xlink">
    <title>Core/Icons/Workspace/error Copywhite</title>
    <g id="WIP" stroke="none" stroke-width="1" fill="none" fill-rule="evenodd">
        <g id="DINT-2020-[1]-Copy" transform="translate(-737.000000, -505.000000)" fill="#FFFFFF">
            <g id="Core/Icons/Workspace/error-Copy" transform="translate(737.000000, 505.000000)">
                <path d="M9.87179487,6.39488462e-14 L9.871,0.067 L9.91908184,0.0195869037 L13.9804131,4.08091816 L13.932,4.128 L14,4.12820513 L14,9.87179487 L13.932,9.871 L13.9804131,9.91908184 L9.91908184,13.9804131 L9.871,13.932 L9.87179487,14 L4.12820513,14 L4.128,13.932 L4.08091816,13.9804131 L0.0195869037,9.91908184 L0.067,9.871 L0,9.87179487 L0,4.12820513 L0.067,4.128 L0.0195869037,4.08091816 L4.08091816,0.0195869037 L4.128,0.067 L4.12820513,6.39488462e-14 L9.87179487,6.39488462e-14 Z M7.83186325,9.34761254 L6.16805698,9.34761254 L6.08637411,9.3553417 C6.00754558,9.3707963 5.93727635,9.40941595 5.87553276,9.47109972 C5.79320798,9.5534245 5.75204558,9.65090598 5.75204558,9.76354416 L5.75204558,9.76354416 L5.75204558,11.2193846 L5.75976353,11.3010351 C5.77519943,11.3798561 5.81378917,11.4501852 5.87553276,11.5119886 C5.95793732,11.5941538 6.05533903,11.635396 6.16805698,11.635396 L6.16805698,11.635396 L7.83202279,11.635396 L7.91361467,11.6276681 C7.99237963,11.6122172 8.06266382,11.5736125 8.12446724,11.5119886 C8.20671225,11.429584 8.24787464,11.3320228 8.24787464,11.2193846 L8.24787464,11.2193846 L8.24787464,9.76354416 L8.24014423,9.68190741 C8.2246859,9.60311254 8.18605128,9.5328433 8.12430769,9.47109972 C8.04198291,9.38877493 7.94450142,9.34761254 7.83186325,9.34761254 L7.83186325,9.34761254 Z M8.03982906,2.48426211 L5.96009117,2.48426211 L5.87866257,2.49199127 C5.80028276,2.50744587 5.73104558,2.54606553 5.67091738,2.60774929 C5.59074644,2.69007407 5.5528547,2.78763533 5.55716239,2.9002735 L5.55716239,2.9002735 L5.73912251,7.89169231 L5.74986432,7.97334028 C5.76811966,8.05215385 5.80892308,8.12245299 5.87234188,8.18413675 C5.95682051,8.26646154 6.05533903,8.3077037 6.16805698,8.3077037 L6.16805698,8.3077037 L7.83202279,8.3077037 L7.91381161,8.29997329 C7.99297293,8.28451496 8.06425926,8.24588034 8.12773789,8.18413675 C8.21221652,8.10189174 8.25649003,8.00433048 8.26095726,7.89169231 L8.26095726,7.89169231 L8.44283761,2.9002735 L8.43822204,2.81863551 C8.42564672,2.73983689 8.38921083,2.66955271 8.32908262,2.60774929 C8.24891168,2.52550427 8.15254701,2.48426211 8.03982906,2.48426211 L8.03982906,2.48426211 Z" id="Combined-Shape"></path>
            </g>
        </g>
    </g>
</svg>