<?xml version="1.0" encoding="UTF-8"?>
<svg width="14px" height="14px" viewBox="0 0 14 14" version="1.1" xmlns="http://www.w3.org/2000/svg" xmlns:xlink="http://www.w3.org/1999/xlink">
    <title>Core/Icons/Workspace/error Copyred</title>
    <g id="WIP" stroke="none" stroke-width="1" fill="none" fill-rule="evenodd">
        <g id="DINT-2020-[1]-Copy" transform="translate(-737.000000, -505.000000)" fill="#D0021B">
            <g id="Combined-Shape" transform="translate(736.000000, 504.000000)">
                <path d="M10.8717949,1 L10.871,1.067 L10.9190818,1.0195869 L14.9804131,5.08091816 L14.932,5.128 L15,5.12820513 L15,10.8717949 L14.932,10.871 L14.9804131,10.9190818 L10.9190818,14.9804131 L10.871,14.932 L10.8717949,15 L5.12820513,15 L5.128,14.932 L5.08091816,14.9804131 L1.0195869,10.9190818 L1.067,10.871 L1,10.8717949 L1,5.12820513 L1.067,5.128 L1.0195869,5.08091816 L5.08091816,1.0195869 L5.128,1.067 L5.12820513,1 L10.8717949,1 Z M8.83186325,10.3476125 L7.16805698,10.3476125 L7.08637411,10.3553417 C7.00754558,10.3707963 6.93727635,10.409416 6.87553276,10.4710997 C6.79320798,10.5534245 6.75204558,10.650906 6.75204558,10.7635442 L6.75204558,10.7635442 L6.75204558,12.2193846 L6.75976353,12.3010351 C6.77519943,12.3798561 6.81378917,12.4501852 6.87553276,12.5119886 C6.95793732,12.5941538 7.05533903,12.635396 7.16805698,12.635396 L7.16805698,12.635396 L8.83202279,12.635396 L8.91361467,12.6276681 C8.99237963,12.6122172 9.06266382,12.5736125 9.12446724,12.5119886 C9.20671225,12.429584 9.24787464,12.3320228 9.24787464,12.2193846 L9.24787464,12.2193846 L9.24787464,10.7635442 L9.24014423,10.6819074 C9.2246859,10.6031125 9.18605128,10.5328433 9.12430769,10.4710997 C9.04198291,10.3887749 8.94450142,10.3476125 8.83186325,10.3476125 L8.83186325,10.3476125 Z M9.03982906,3.48426211 L6.96009117,3.48426211 L6.87866257,3.49199127 C6.80028276,3.50744587 6.73104558,3.54606553 6.67091738,3.60774929 C6.59074644,3.69007407 6.5528547,3.78763533 6.55716239,3.9002735 L6.55716239,3.9002735 L6.73912251,8.89169231 L6.74986432,8.97334028 C6.76811966,9.05215385 6.80892308,9.12245299 6.87234188,9.18413675 C6.95682051,9.26646154 7.05533903,9.3077037 7.16805698,9.3077037 L7.16805698,9.3077037 L8.83202279,9.3077037 L8.91381161,9.29997329 C8.99297293,9.28451496 9.06425926,9.24588034 9.12773789,9.18413675 C9.21221652,9.10189174 9.25649003,9.00433048 9.26095726,8.89169231 L9.26095726,8.89169231 L9.44283761,3.9002735 L9.43822204,3.81863551 C9.42564672,3.73983689 9.38921083,3.66955271 9.32908262,3.60774929 C9.24891168,3.52550427 9.15254701,3.48426211 9.03982906,3.48426211 L9.03982906,3.48426211 Z"></path>
            </g>
        </g>
    </g>
</svg>