<?xml version="1.0" encoding="utf-8"?>
<!-- Generator: Adobe Illustrator 23.0.1, SVG Export Plug-In . SVG Version: 6.00 Build 0)  -->
<svg version="1.1" id="Layer_1" xmlns="http://www.w3.org/2000/svg" xmlns:xlink="http://www.w3.org/1999/xlink" x="0px" y="0px"
	 viewBox="0 0 13 13" style="enable-background:new 0 0 13 13;" xml:space="preserve">
<style type="text/css">
	.st0{fill-rule:evenodd;clip-rule:evenodd;fill:#606060;}
</style>
<title>Core/Icons/Workspace/Help</title>
<desc>Created with Sketch.</desc>
<g id="WIP">
	<g id="Constant-value-Click-on-help" transform="translate(-130.000000, -21.000000)">
		<g id="Group">
			<g id="Help_-hover-state" transform="translate(124.000000, 18.000000)">
				<g transform="translate(3.000000, 3.000000)">
					<g id="Shape">
						<path class="st0" d="M9.2,0c0.5,0,1,0.1,1.4,0.2c0.4,0.1,0.8,0.3,1.1,0.6c0.3,0.3,0.6,0.6,0.8,1c0.2,0.4,0.3,0.9,0.3,1.5
							c0,0.4,0,0.7-0.1,1c-0.1,0.3-0.2,0.6-0.3,0.9c-0.1,0.3-0.3,0.5-0.6,0.8c-0.2,0.3-0.5,0.5-0.8,0.8c-0.2,0.2-0.4,0.4-0.5,0.5
							c-0.1,0.2-0.3,0.3-0.4,0.4C10,8,10,8.2,9.9,8.3c0,0.2-0.1,0.3-0.1,0.6c0,0.1,0,0.3,0.1,0.5c0,0.2,0.1,0.3,0.1,0.4H7.9
							C7.9,9.6,7.8,9.4,7.8,9.2c0-0.2,0-0.4,0-0.6c0-0.3,0-0.5,0.1-0.8c0-0.2,0.1-0.5,0.2-0.7C8.1,7,8.3,6.8,8.4,6.6
							C8.6,6.4,8.7,6.2,8.9,6c0.2-0.2,0.4-0.4,0.5-0.6C9.6,5.3,9.7,5.1,9.8,5C10,4.8,10,4.6,10.1,4.4c0.1-0.2,0.1-0.4,0.1-0.6
							c0-0.2,0-0.4-0.1-0.5C10,3.1,10,3,9.8,2.8C9.7,2.7,9.6,2.6,9.4,2.6C9.3,2.5,9.1,2.5,8.9,2.5C8.5,2.5,8,2.6,7.6,2.8
							C7.1,3,6.7,3.3,6.2,3.7V0.9c0.4-0.3,0.9-0.5,1.4-0.7C8.1,0.1,8.7,0,9.2,0L9.2,0z M9.1,10.6c0.3,0,0.6,0.1,0.9,0.4
							c0.2,0.2,0.3,0.5,0.3,0.9c0,0.4-0.1,0.7-0.3,0.9C9.7,12.9,9.4,13,9.1,13c-0.4,0-0.6-0.1-0.9-0.4c-0.2-0.2-0.3-0.5-0.3-0.9
							c0-0.3,0.1-0.6,0.3-0.9C8.5,10.7,8.7,10.6,9.1,10.6z"/>
					</g>
				</g>
			</g>
		</g>
	</g>
</g>
</svg>
