<?xml version="1.0" encoding="UTF-8"?>
<svg width="16px" height="18px" viewBox="0 0 16 18" version="1.1" xmlns="http://www.w3.org/2000/svg" xmlns:xlink="http://www.w3.org/1999/xlink">
    <title>Core/Logo/EBX _inOverview</title>
    <g id="Symbols" stroke="none" stroke-width="1" fill="none" fill-rule="evenodd">
        <g id="Components/a/Overviewpane/Table/Target" transform="translate(-9.000000, -5.000000)" fill="#1E1E1E" fill-rule="nonzero">
            <g id="Core/Logo/EBX-" transform="translate(9.000000, 5.000000)">
                <path d="M7.75397129,0.0766180827 C8.64942183,0.0766180827 9.50967442,0.133000433 10.3077144,0.242157597 L10.3077144,0.242157597 L10.7788568,0.313956012 C13.2209516,0.725538332 14.9865695,1.65790152 15.2208231,2.99688373 C15.3437036,3.13231459 15.4260879,3.30461263 15.4484293,3.49504099 L15.4545454,3.6 L15.4545454,14.4 C15.4545454,14.6712443 15.3333408,14.9144628 15.1416249,15.0794691 C14.54598,16.7466214 11.4497628,17.7070781 7.75395899,17.7070781 C4.11384843,17.7070781 1.05538989,16.7753501 0.393337753,15.1542368 L0.38708196,15.1369305 C0.180263502,14.9930795 0.0367491521,14.7660618 0.00611614099,14.504959 L2.17535493e-08,14.4 L2.17535493e-08,3.6 C2.17535493e-08,3.33486979 0.115802148,3.09651614 0.300064363,2.93180767 C0.579954833,1.62720657 2.32737641,0.718731909 4.72908575,0.313956012 L4.72908575,0.313956012 L5.20022814,0.242157597 C5.99826816,0.133000433 6.85852075,0.0766180827 7.75397129,0.0766180827 Z M1.81733766,12.8283715 L1.81947335,13.8496345 C1.97989416,14.0119228 2.07878435,14.2340632 2.07878435,14.4790697 C2.07878435,14.7243218 2.60571987,15.043768 3.47910593,15.318321 L3.82251307,15.4189415 L4.19628488,15.5139576 C5.16690772,15.7433296 6.40237076,15.9070781 7.75395899,15.9070781 C10.9076648,15.9070781 13.4291336,15.0155586 13.4291336,14.4790697 C13.4291336,14.2624042 13.5064689,14.0636206 13.6353027,13.9082975 L13.6369721,12.8571011 C12.2613777,13.5846906 10.131764,13.9822596 7.75395899,13.9822596 C6.67941834,13.9822596 5.65556274,13.901069 4.72907344,13.7449216 L4.27415877,13.6606304 C3.31433732,13.4660725 2.47605849,13.1860704 1.81733766,12.8283715 Z M1.81776489,9.10379044 L1.81947335,10.124816 C1.97989416,10.2871043 2.07878435,10.5092447 2.07878435,10.7542512 C2.07878435,11.2907401 4.60025313,12.1822596 7.75395899,12.1822596 C9.01544133,12.1822596 10.1757657,12.0396165 11.1140214,11.8341094 L11.5021824,11.7424188 L11.8610362,11.6444261 C12.8342728,11.3591701 13.4291336,11.0148316 13.4291336,10.7542512 C13.4291336,10.5375857 13.5064689,10.3388021 13.6353027,10.183479 L13.6372588,9.13214963 C12.8832651,9.53101066 11.9026924,9.83070791 10.7788568,10.0201153 L10.3077144,10.0919137 C9.50967442,10.2010709 8.64942183,10.2574532 7.75397129,10.2574532 C6.85852075,10.2574532 5.99826816,10.2010709 5.20022814,10.0919137 L4.72908575,10.0201153 C3.57877012,9.82624504 2.57854802,9.51682635 1.81776489,9.10379044 Z M1.81807364,5.37913955 L1.81948565,6.40000966 C1.97990646,6.56229802 2.07879666,6.78443843 2.07879666,7.02944491 C2.07879666,7.25936873 2.54192358,7.55450224 3.31946238,7.81672051 L3.64689403,7.91961974 C4.67737981,8.22165546 6.13206542,8.45745324 7.75397129,8.45745324 C9.19566539,8.45745324 10.5052349,8.27114388 11.5021947,8.01761246 L11.8610486,7.91961974 L12.1884802,7.81672051 C12.966019,7.55450224 13.4291459,7.25936873 13.4291459,7.02944491 C13.4291459,6.81293291 13.5063717,6.61427757 13.6350412,6.459003 L13.6369844,5.40747627 C12.26139,6.1350658 10.1317763,6.53263475 7.75397129,6.53263475 C5.34547709,6.53263475 3.19162211,6.12473711 1.81807364,5.37913955 Z M7.75397129,1.87661808 C6.67270071,1.87661808 5.66575025,1.9814171 4.80926199,2.14077517 L4.80926199,2.14077517 L4.39390889,2.22476821 C4.12583585,2.2834845 3.87589087,2.34733254 3.64689403,2.41445159 L3.64689403,2.41445159 L3.31946238,2.51735082 C2.54192358,2.77956909 2.07879666,3.07470259 2.07879666,3.30462642 C2.07879666,3.84111533 4.60026544,4.73263475 7.75397129,4.73263475 C9.19566539,4.73263475 10.5052349,4.54632538 11.5021947,4.29279397 L11.5021947,4.29279397 L11.8610486,4.19480124 C12.8342851,3.90954529 13.4291459,3.56520675 13.4291459,3.30462642 C13.4291459,3.07470259 12.966019,2.77956909 12.1884802,2.51735082 L12.1884802,2.51735082 L11.8610486,2.41445159 L11.5021947,2.31645886 C11.3775747,2.28476744 11.2480702,2.25412635 11.1140337,2.22476821 L11.1140337,2.22476821 L10.6986806,2.14077517 C9.84219233,1.9814171 8.83524187,1.87661808 7.75397129,1.87661808 Z" id="Combined-Shape"></path>
            </g>
        </g>
    </g>
</svg>