<?xml version="1.0" encoding="UTF-8"?>
<svg width="22px" height="20px" viewBox="0 0 22 20" version="1.1" xmlns="http://www.w3.org/2000/svg" xmlns:xlink="http://www.w3.org/1999/xlink">
    <title>Logo/EBX_inMapping</title>
    <g id="Logo/EBX" stroke="none" stroke-width="1" fill="none" fill-rule="evenodd">
        <path d="M8.52936842,0.085131203 C9.51436401,0.085131203 10.4606419,0.147778259 11.3384859,0.269063997 L11.3384859,0.269063997 L11.8567425,0.348840014 C14.5447,0.806435151 16.4876168,1.84338816 16.7433792,3.3326182 C16.8786797,3.48163097 16.968779,3.67249982 16.9932722,3.88337888 L17,4.00000002 L17,16 C17,16.3001966 16.8677221,16.569498 16.6582733,16.7527973 C16.0044027,18.6061582 12.5970219,19.6745312 8.52935488,19.6745312 C4.50952818,19.6745312 1.13454756,18.631141 0.424224125,16.816811 C0.197861257,16.6582919 0.0403783012,16.4063413 0.00672775509,16.1166211 L2.39289042e-08,16 L2.39289042e-08,4.00000002 C2.39289042e-08,3.70557644 0.127239228,3.44087117 0.32972915,3.25787271 C0.636032225,1.80901481 2.55879579,0.79881543 5.20199432,0.348840014 L5.20199432,0.348840014 L5.72025095,0.269063997 C6.59809498,0.147778259 7.54437283,0.085131203 8.52936842,0.085131203 Z M1.99851546,14.2534411 L2.00035934,15.3873998 C2.1774473,15.5678143 2.28666279,15.8150805 2.28666279,16.0878552 C2.28666279,16.3603576 2.86629186,16.7152978 3.82701653,17.0203567 L4.20476437,17.1321572 L4.61591337,17.2377306 C5.68359849,17.4925884 7.04260784,17.6745312 8.52935488,17.6745312 C11.9984313,17.6745312 14.772047,16.683954 14.772047,16.0878552 C14.772047,15.846832 14.8573165,15.6257246 14.9993343,15.4530539 L15.0003341,14.285847 C13.4871695,15.0941659 11.1447472,15.535844 8.52935488,15.535844 C7.34736018,15.535844 6.22111901,15.4456322 5.20198079,15.2721351 L4.70157465,15.1784782 C3.645501,14.9622475 2.72319263,14.6510302 1.99851546,14.2534411 Z M1.9982493,10.1146139 L2.00035934,11.2487126 C2.1774473,11.4291271 2.28666279,11.6763932 2.28666279,11.949168 C2.28666279,12.5452668 5.06027845,13.535844 8.52935488,13.535844 C9.91698546,13.535844 11.1933423,13.3773516 12.2254235,13.1490105 L12.6524006,13.047132 L13.0471399,12.9382512 C14.1177001,12.6213001 14.772047,12.2387017 14.772047,11.949168 C14.772047,11.7081448 14.8573165,11.4870373 14.9993343,11.3143667 L15.0004452,10.1471212 C14.1711239,10.5901562 13.0926936,10.9230544 11.8567425,11.1334615 L11.3384859,11.2132375 C10.4606419,11.3345232 9.51436401,11.3971703 8.52936842,11.3971703 C7.54437283,11.3971703 6.59809498,11.3345232 5.72025095,11.2132375 L5.20199432,11.1334615 C3.93599581,10.9179392 2.83527019,10.5738975 1.9982493,10.1146139 Z M1.99927861,5.97649138 L2.00045384,7.11012144 C2.17749413,7.29052879 2.28667632,7.53776114 2.28667632,7.81049435 C2.28667632,8.06596526 2.79611593,8.39389137 3.65140862,8.68524501 L4.01158343,8.79957749 C5.14511779,9.13517273 6.74527196,9.39717027 8.52936842,9.39717027 C10.1152319,9.39717027 11.5557583,9.19015987 12.6524142,8.90845829 L13.0471534,8.79957749 L13.4073282,8.68524501 C14.2626209,8.39389137 14.7720605,8.06596526 14.7720605,7.81049435 C14.7720605,7.56941767 14.8573678,7.34826558 14.9994423,7.17557815 L15.0003476,6.00848606 C13.487183,6.81680502 11.1447608,7.25848305 8.52936842,7.25848305 C5.87967268,7.25848305 3.51015454,6.80514298 1.99927861,5.97649138 Z M8.52936842,2.0851312 C7.33997078,2.0851312 6.23232527,2.20157456 5.29018819,2.37863908 L5.29018819,2.37863908 L4.83329978,2.47196468 C4.53841943,2.537205 4.26347995,2.60814726 4.01158343,2.68272398 L4.01158343,2.68272398 L3.65140862,2.79705647 C2.79611593,3.0884101 2.28667632,3.41633622 2.28667632,3.67180713 C2.28667632,4.26790592 5.06029198,5.25848305 8.52936842,5.25848305 C10.1152319,5.25848305 11.5557583,5.05147265 12.6524142,4.76977107 L12.6524142,4.76977107 L13.0471534,4.66089027 C14.1177136,4.34393921 14.7720605,3.96134083 14.7720605,3.67180713 C14.7720605,3.41633622 14.2626209,3.0884101 13.4073282,2.79705647 L13.4073282,2.79705647 L13.0471534,2.68272398 L12.6524142,2.57384318 C12.5153322,2.53863048 12.3728772,2.50458484 12.2254371,2.47196468 L12.2254371,2.47196468 L11.7685486,2.37863908 C10.8264116,2.20157456 9.71876605,2.0851312 8.52936842,2.0851312 Z" id="Combined-Shape" fill="#1E1E1E" fill-rule="nonzero"></path>
    </g>
</svg>