<?xml version="1.0" encoding="UTF-8"?>
<svg width="22px" height="20px" viewBox="0 0 22 20" version="1.1" xmlns="http://www.w3.org/2000/svg" xmlns:xlink="http://www.w3.org/1999/xlink">
    <title>Icons/Logo/Excel_inMapping</title>
    <g id="Icons/Logo/Excel" stroke="none" stroke-width="1" fill="none" fill-rule="evenodd">
        <g id="excellogo" fill="#1E1E1E" fill-rule="nonzero">
            <path d="M19.0476923,2 L12,2 L12,4.29538462 L14.3315385,4.29538462 L14.3315385,5.85769231 L12,5.85769231 L12,7.38461538 L14.3076923,7.38461538 L14.3076923,8.92307692 L12,8.92307692 L12,10.4615385 L14.3076923,10.4615385 L14.3076923,12 L12,12 L12,13.5384615 L14.3076923,13.5384615 L14.3076923,15.0769231 L12,15.0769231 L12,17.3846154 L19.0476923,17.3846154 C19.4023077,17.3846154 19.6923077,17.0838462 19.6923077,16.7153846 L19.6923077,2.66923077 C19.6923077,2.30076923 19.4023077,2 19.0476923,2 Z M18.1538462,15.0769231 L15.0769231,15.0769231 L15.0769231,13.5384615 L18.1538462,13.5384615 L18.1538462,15.0769231 Z M18.1538462,12 L15.0769231,12 L15.0769231,10.4615385 L18.1538462,10.4615385 L18.1538462,12 Z M18.1538462,8.92307692 L15.0769231,8.92307692 L15.0769231,7.38461538 L18.1538462,7.38461538 L18.1538462,8.92307692 Z M18.1538462,5.84615385 L15.0769231,5.84615385 L15.0769231,4.30769231 L18.1538462,4.30769231 L18.1538462,5.84615385 Z" id="Shape"></path>
            <path d="M0,2.22230769 L0,17.7784615 L11.5384615,20 L11.5384615,0 L0,2.22230769 Z M7.29846154,13.9076923 L5.95615385,11.37 C5.90538462,11.2753846 5.85307692,11.1015385 5.79846154,10.8484615 L5.77769231,10.8484615 C5.75230769,10.9676923 5.69230769,11.1492308 5.59769231,11.3923077 L4.25076923,13.9076923 L2.15923077,13.9076923 L4.64230769,10.0123077 L2.37076923,6.11615385 L4.50615385,6.11615385 L5.62,8.45230769 C5.70692308,8.63692308 5.78461538,8.85615385 5.85384615,9.10923077 L5.87538462,9.10923077 C5.91923077,8.95692308 6.00076923,8.73076923 6.12,8.43 L7.35846154,6.11538462 L9.31384615,6.11538462 L6.97769231,9.97846154 L9.37923077,13.9069231 L7.29846154,13.9076923 L7.29846154,13.9076923 Z" id="Shape"></path>
        </g>
    </g>
</svg>