<?xml version="1.0" encoding="UTF-8"?>
<svg width="18px" height="19px" viewBox="0 0 18 19" version="1.1" xmlns="http://www.w3.org/2000/svg" xmlns:xlink="http://www.w3.org/1999/xlink">
    <title>Core/Logo/EBX Copy_inOverview</title>
    <g id="Symbols" stroke="none" stroke-width="1" fill="none" fill-rule="evenodd">
        <g id="Components/a/Overviewpane/Table/Source" transform="translate(-9.000000, -5.000000)" fill="#1E1E1E" fill-rule="nonzero">
            <g id="excellogo" transform="translate(9.000000, 5.000000)">
                <path d="M17.3160839,1.81818182 L10.9090909,1.81818182 L10.9090909,3.9048951 L13.0286713,3.9048951 L13.0286713,5.32517483 L10.9090909,5.32517483 L10.9090909,6.71328671 L13.006993,6.71328671 L13.006993,8.11188811 L10.9090909,8.11188811 L10.9090909,9.51048951 L13.006993,9.51048951 L13.006993,10.9090909 L10.9090909,10.9090909 L10.9090909,12.3076923 L13.006993,12.3076923 L13.006993,13.7062937 L10.9090909,13.7062937 L10.9090909,15.8041958 L17.3160839,15.8041958 C17.6384615,15.8041958 17.9020979,15.5307692 17.9020979,15.1958042 L17.9020979,2.42657343 C17.9020979,2.09160839 17.6384615,1.81818182 17.3160839,1.81818182 Z M16.5034965,13.7062937 L13.7062937,13.7062937 L13.7062937,12.3076923 L16.5034965,12.3076923 L16.5034965,13.7062937 Z M16.5034965,10.9090909 L13.7062937,10.9090909 L13.7062937,9.51048951 L16.5034965,9.51048951 L16.5034965,10.9090909 Z M16.5034965,8.11188811 L13.7062937,8.11188811 L13.7062937,6.71328671 L16.5034965,6.71328671 L16.5034965,8.11188811 Z M16.5034965,5.31468531 L13.7062937,5.31468531 L13.7062937,3.91608392 L16.5034965,3.91608392 L16.5034965,5.31468531 Z" id="Shape"></path>
                <path d="M0,2.02027972 L0,16.1622378 L10.4895105,18.1818182 L10.4895105,0 L0,2.02027972 Z M6.63496503,12.6433566 L5.41468531,10.3363636 C5.36853147,10.2503497 5.32097902,10.0923077 5.27132867,9.86223776 L5.25244755,9.86223776 C5.22937063,9.97062937 5.17482517,10.1356643 5.08881119,10.3566434 L3.86433566,12.6433566 L1.96293706,12.6433566 L4.22027972,9.1020979 L2.15524476,5.56013986 L4.0965035,5.56013986 L5.10909091,7.68391608 C5.18811189,7.85174825 5.25874126,8.05104895 5.32167832,8.28111888 L5.34125874,8.28111888 C5.38111888,8.14265734 5.45524476,7.93706294 5.56363636,7.66363636 L6.68951049,5.55944056 L8.46713287,5.55944056 L6.34335664,9.07132867 L8.52657343,12.6426573 L6.63496503,12.6433566 L6.63496503,12.6433566 Z" id="Shape"></path>
            </g>
        </g>
    </g>
</svg>