<svg xmlns="http://www.w3.org/2000/svg" width="22" height="20" viewBox="0 0 22 20"><g fill="none" fill-rule="evenodd"><rect width="22" height="12" y="4" fill="#FFF" rx="2"/><path fill="#000" stroke="#000" stroke-linecap="round" stroke-width=".25" d="M2.28,12.4177885 L2.70442105,11.6830019 C2.91663158,11.8666986 3.15536842,12.0167175 3.42063158,12.1330587 C3.57300473,12.1988021 3.73241575,12.2453338 3.89545263,12.2716578 C4.04548487,12.2962092 4.1971714,12.3082186 4.34905263,12.3075705 C4.48368105,12.3083274 4.61814433,12.2976682 4.75110316,12.2756992 C4.89393263,12.2512063 5.02314526,12.21263 5.13874105,12.1599703 C5.21557475,12.125278 5.2887368,12.0824003 5.35705263,12.0320255 C5.59567158,11.854942 5.71931368,11.6181264 5.72797895,11.3215787 C5.72828838,11.3104068 5.72843576,11.2992306 5.72842105,11.2880541 C5.72842105,11.1594664 5.71073684,11.0400636 5.67536842,10.9298456 C5.65525131,10.8685529 5.62659295,10.8106546 5.59030737,10.7579974 C5.55682526,10.7086442 5.51591579,10.6603014 5.46757895,10.6129689 C5.39265684,10.5395515 5.29592421,10.466134 5.17738105,10.3927166 C5.1304337,10.3637421 5.0827272,10.3361159 5.03431579,10.3098694 C4.96153339,10.2704723 4.8877335,10.2331374 4.81299789,10.1979063 C4.66893053,10.1296936 4.50249263,10.0583275 4.31368421,9.98380786 C4.06999579,9.88534646 3.85477895,9.78777292 3.66803368,9.69108725 C3.61303381,9.66267779 3.55855668,9.63318919 3.50463158,9.60263731 C3.41286975,9.5509134 3.32417205,9.49352795 3.23901474,9.43078909 C3.13573895,9.35418759 3.04596211,9.27369784 2.96968421,9.18931984 C2.87658922,9.08754419 2.79870896,8.97184597 2.73864,8.84608264 C2.7152452,8.79658046 2.6949545,8.74555956 2.67789474,8.69333888 C2.64450719,8.58939305 2.62096405,8.48231096 2.6076,8.37361485 C2.59521185,8.27405338 2.58915661,8.17375178 2.58947368,8.07336267 C2.58947368,7.84680347 2.63515789,7.63249071 2.72652632,7.43042439 C2.81145497,7.24435226 2.93320763,7.07897799 3.08383579,6.94509783 C3.1000425,6.93049874 3.11652141,6.91622892 3.13326316,6.90229651 C3.24522548,6.80983861 3.36736559,6.7315249 3.49711579,6.66900176 C3.59416247,6.62194035 3.69415848,6.58174175 3.79642105,6.54868046 C3.94302645,6.50149106 4.0933708,6.46789613 4.24568842,6.44829024 C4.39436151,6.42900282 4.54406747,6.41958456 4.69389474,6.42007328 C4.86226838,6.41961731 5.03054358,6.42860095 5.19798316,6.44700436 C5.35890766,6.46457541 5.51843416,6.49394832 5.67536842,6.53490321 C5.96421053,6.61144348 6.25010526,6.72013067 6.53305263,6.86096477 L6.22357895,7.60493621 C6.1064778,7.53398075 5.98454518,7.47200204 5.85875368,7.41949444 C5.74801918,7.37307922 5.63517874,7.33228107 5.52063158,7.29724432 C5.25242105,7.21458082 4.97094737,7.17324908 4.67621053,7.17324908 C4.55700037,7.17262227 4.43790511,7.18103342 4.31987368,7.19841552 C4.09487158,7.23282802 3.90712421,7.30251029 3.75663158,7.40746231 C3.68210704,7.45812637 3.61581734,7.52078478 3.56024842,7.59308778 C3.46713943,7.71695827 3.4178469,7.87030832 3.42063158,8.02743851 C3.42042711,8.0837124 3.42423967,8.13992458 3.43203789,8.1956128 C3.4395286,8.24936311 3.45199479,8.30223722 3.46926316,8.35350007 C3.48563207,8.40030887 3.50815723,8.44453991 3.53619789,8.48493502 C3.56095579,8.5211845 3.59078316,8.55697473 3.62568,8.59230572 C3.63807197,8.60489592 3.65077949,8.61714657 3.66378947,8.62904505 C3.73429053,8.69340011 3.82492211,8.75855119 3.93568421,8.82449829 C3.98001774,8.85083015 4.02497921,8.87600448 4.07052632,8.89999761 C4.13625928,8.93446952 4.20286392,8.96711786 4.27026947,8.99790793 C4.41026947,9.06232422 4.57505684,9.13072061 4.76463158,9.20309709 C4.89615839,9.25469901 5.02633136,9.30995027 5.15501053,9.36879147 C5.33244211,9.45023032 5.49115789,9.53277135 5.63115789,9.61641456 C5.72535126,9.67228866 5.81655882,9.73342692 5.90437895,9.79956012 C5.99291789,9.86667063 6.07181895,9.93564872 6.14108211,10.0064944 C6.16019627,10.0260207 6.17885844,10.0460187 6.19705263,10.0664714 C6.27996255,10.1587613 6.35192035,10.261045 6.41138526,10.3711323 C6.44729506,10.43823 6.4776445,10.5083795 6.50210526,10.580822 C6.5456147,10.7117815 6.57373007,10.8477227 6.58584,10.9856894 C6.59197239,11.0526101 6.59501167,11.1197978 6.59494837,11.1870209 C6.59494837,11.4870588 6.53894737,11.753419 6.42694737,11.9861014 C6.31494737,12.2187838 6.16021053,12.4162577 5.96273684,12.5785231 C5.82316741,12.6920147 5.66907544,12.784783 5.50489263,12.8541599 C5.4219719,12.8896795 5.33718889,12.9203137 5.25094737,12.9459164 C5.05341157,13.0040567 4.85077408,13.0415336 4.64605895,13.0577877 C4.54725262,13.0659507 4.44817094,13.0699953 4.34905263,13.0699129 C3.91873684,13.0699129 3.52673684,13.0102102 3.17305263,12.8908074 C3.01020967,12.8365461 2.85156835,12.7695185 2.69849684,12.6903025 C2.55072496,12.6139537 2.41054969,12.5226753 2.28,12.4177885 L2.28,12.4177885 Z M12.5810526,11.8942531 L13.368,12.3443099 L12.9877895,13.0699575 L12.1301053,12.4086037 C11.9061053,12.5984236 11.6482105,12.7560965 11.3564211,12.8816226 C11.17519,12.9583674 10.9853974,13.0111647 10.7914989,13.038775 C10.6461767,13.0599551 10.4995871,13.0703602 10.3528421,13.0699575 C10.1303627,13.0711367 9.90838782,13.0477986 9.69065684,13.0002906 C9.50105319,12.958538 9.31675802,12.8940573 9.14147368,12.8081439 C8.78778947,12.6336321 8.48715789,12.3948264 8.23957895,12.091727 C8.01138186,11.810195 7.83269531,11.4891194 7.71170526,11.1432093 C7.69843761,11.1059856 7.6857622,11.068537 7.67368421,11.0308788 C7.544,10.6267461 7.47912141,10.195059 7.47912141,9.73581738 C7.47796513,9.43869866 7.50602262,9.1422319 7.56289263,8.85104245 C7.59168591,8.70602066 7.62868054,8.56288723 7.67368421,8.42238631 C7.75984906,8.14893134 7.88129543,7.88886865 8.03470737,7.64929895 C8.09746327,7.55218603 8.16588168,7.45915348 8.23957895,7.37072298 C8.48715789,7.07374672 8.78778947,6.8410643 9.14147368,6.6726757 C9.37998335,6.56073773 9.63313858,6.48611259 9.89269895,6.45122938 C10.0452281,6.43007858 10.1989604,6.41967595 10.3528421,6.42004473 C10.5862889,6.41876331 10.819124,6.44501693 11.0468589,6.49834757 C11.2236513,6.54032606 11.3956083,6.60184772 11.5597895,6.68186053 C11.9164211,6.85637235 12.2185263,7.09364719 12.4661053,7.39368506 C12.7136842,7.69372293 12.9037895,8.04427737 13.0364211,8.4453484 C13.1500135,8.79305513 13.2153641,9.15579207 13.2305053,9.52263742 C13.233761,9.59364701 13.2353826,9.6647273 13.2353684,9.73581738 C13.2353684,10.1798122 13.1793095,10.5695859 13.0671916,10.9051384 C13.0587882,10.9303548 13.050004,10.9554325 13.0408421,10.9803622 C12.9111579,11.3324475 12.7578947,11.6370777 12.5810526,11.8942531 Z M18.24,12.1789829 L18.24,12.9596936 L14.5616842,12.9596936 L14.5616842,6.53031079 L15.4016842,6.53031079 L15.4016842,12.1789829 L18.24,12.1789829 Z M11.5023158,11.9952862 L10.8303158,11.5544142 L11.184,10.8839215 L11.9797895,11.4809356 C12.1212632,11.2421299 12.2229474,10.981893 12.2848421,10.7002248 C12.3467368,10.4185566 12.3776842,10.0970875 12.3776842,9.73581738 C12.3776842,9.40516341 12.332,9.08675588 12.2406316,8.78059479 C12.1705633,8.54152407 12.0687224,8.31377917 11.9380547,8.10394817 C11.9078618,8.05588098 11.87607,8.00891814 11.8427368,7.96314468 C11.6688421,7.72433903 11.4566316,7.53298835 11.2061053,7.38909264 C11.0055179,7.27510334 10.7845239,7.20513806 10.5568295,7.18353609 C10.4890401,7.17659369 10.4209601,7.17316044 10.3528421,7.17321368 C10.191824,7.17229737 10.0312326,7.19054143 9.87421895,7.22762329 C9.74462121,7.25865331 9.61890799,7.30513045 9.49957895,7.36613056 C9.24905263,7.49471822 9.03831579,7.67382245 8.86736842,7.90344327 C8.74117275,8.07454575 8.63792653,8.26265482 8.56045895,8.46261588 C8.52783198,8.54573715 8.49894601,8.63039038 8.47389474,8.71630096 C8.40817948,8.94413438 8.36629135,9.17866057 8.34895579,9.41581781 C8.34080535,9.52227348 8.33676421,9.62902561 8.336841,9.73581738 C8.336841,10.0664714 8.38105263,10.3879405 8.46947368,10.7002248 C8.52692972,10.9067498 8.60778161,11.1054606 8.71033263,11.2921873 C8.75528583,11.3733444 8.80476814,11.4517023 8.85852632,11.5268597 C9.02947368,11.7656654 9.23873684,11.9570161 9.48631579,12.1009118 C9.73389474,12.2448075 10.0168421,12.3167687 10.3351579,12.3167687 C10.4491941,12.3171228 10.5631361,12.3099133 10.6762863,12.295171 C10.785319,12.2810633 10.8930334,12.257561 10.9983158,12.224907 C11.1928421,12.1636748 11.3608421,12.0871345 11.5023158,11.9952862 Z"/></g></svg>