<?xml version="1.0" encoding="UTF-8"?>
<svg width="16px" height="16px" viewBox="0 0 16 16" version="1.1" xmlns="http://www.w3.org/2000/svg" xmlns:xlink="http://www.w3.org/1999/xlink">
    <!-- Generator: Sketch 61.2 (89653) - https://sketch.com -->
    <title>Core/Icons/Workspace/ Foreign n PrimaryDisable</title>
    <desc>Created with Sketch.</desc>
    <defs>
        <path d="M5,8.53333333 C6.19508283,8.53333333 7.26775622,9.02249069 8.00071825,9.79799029 C8.73224378,9.02249069 9.80491717,8.53333333 11,8.53333333 L12,8.53333333 C14.209139,8.53333333 16,10.2048036 16,12.2666667 C16,14.3285297 14.209139,16 12,16 L11,16 C9.80491717,16 8.73224378,15.5108426 7.99928175,14.735343 C7.26775622,15.5108426 6.19508283,16 5,16 L4,16 C1.790861,16 0,14.3285297 0,12.2666667 C0,10.2048036 1.790861,8.53333333 4,8.53333333 L5,8.53333333 Z M5,9.46666667 L4,9.46666667 C2.34314575,9.46666667 1,10.7202694 1,12.2666667 C1,13.813064 2.34314575,15.0666667 4,15.0666667 L5,15.0666667 C5.99188142,15.0666667 6.87133415,14.6173931 7.41749351,13.9249865 L7.389,13.8663333 L8.61470269,13.867384 L8.58436872,13.9256344 C9.12866585,14.6173931 10.0081186,15.0666667 11,15.0666667 L12,15.0666667 C13.6568542,15.0666667 15,13.813064 15,12.2666667 C15,10.7202694 13.6568542,9.46666667 12,9.46666667 L11,9.46666667 C10.0086036,9.46666667 9.12952598,9.9155009 8.58330794,10.6073313 L8.612,10.6663333 L7.38529731,10.6659493 L7.41563128,10.607699 C6.87047402,9.9155009 5.9913964,9.46666667 5,9.46666667 Z M9.86666667,10.6666667 C10.8433386,10.6666667 11.6448205,11.3095907 11.7264816,12.1286125 L11.733,12.266 L11.7264816,12.4047208 C11.6448205,13.2237426 10.8433386,13.8666667 9.86666667,13.8666667 L6.13333333,13.8666667 C5.1024018,13.8666667 4.26666667,13.1503223 4.26666667,12.2666667 C4.26666667,11.3830111 5.1024018,10.6666667 6.13333333,10.6666667 L9.86666667,10.6666667 Z M4.62095779,11.198448 C4.43150524,11.4224041 4.30653297,11.702655 4.27469299,12.0105488 L4.26666667,12.1666667 L4.26666667,12.3666667 C4.26666667,12.7354292 4.39973603,13.0731117 4.62047566,13.3343151 L3.73333333,13.3333333 C3.1442296,13.3333333 2.66666667,12.8557704 2.66666667,12.2666667 C2.66666667,11.6775629 3.1442296,11.2 3.73333333,11.2 L4.62095779,11.198448 Z M11.3790422,11.198448 L12.2666667,11.2 C12.8557704,11.2 13.3333333,11.6775629 13.3333333,12.2666667 C13.3333333,12.8557704 12.8557704,13.3333333 12.2666667,13.3333333 L11.3795243,13.3343151 C11.5687297,13.1104265 11.6935243,12.8303491 11.7253186,12.5226725 L11.7333333,12.3666667 L11.7333333,12.1666667 C11.7333333,11.7976357 11.6000702,11.4597301 11.3790422,11.198448 Z M9.86666667,11.4666667 L6.13333333,11.4666667 C5.61786757,11.4666667 5.2,11.8248389 5.2,12.2666667 C5.2,12.7084945 5.61786757,13.0666667 6.13333333,13.0666667 L9.86666667,13.0666667 C10.3821324,13.0666667 10.8,12.7084945 10.8,12.2666667 C10.8,11.8248389 10.3821324,11.4666667 9.86666667,11.4666667 Z M3,0 C4.81614133,0 6.0641947,0.700926044 6.79737197,1.86666667 L14.5000328,1.86666667 C14.6326414,1.86666667 14.7598186,1.91583319 14.853587,2.00335017 L15.8535393,2.9366835 C16.0057198,3.07871829 16.0434471,3.29570497 15.9471997,3.47536634 L14.9471974,5.34203301 C14.7945725,5.62693217 14.3877498,5.68854906 14.1464286,5.4633165 L13.4999806,4.85996633 L12.8535325,5.4633165 C12.6582699,5.64556117 12.3416867,5.64556117 12.1464241,5.4633165 L11.499976,4.85996633 L10.853528,5.4633165 C10.7597596,5.55083347 10.6325823,5.6 10.4999738,5.6 L9.34377116,5.6 C9.1964504,5.6 9.05662743,5.53936247 8.96162455,5.4342731 L8.46878971,4.88911383 L7.85357117,5.4633165 C7.75980277,5.55083347 7.63262553,5.6 7.50001698,5.6 L6.79737197,5.6 C6.0641947,6.76574062 4.81614133,7.46666667 3,7.46666667 C1.66667044,7.46666667 0,6.3 0,5.13333333 L0,2.33333333 C0,1.16666667 1.66667044,0 3,0 Z M3.00000226,0.933333333 C2.16667157,0.933333333 1.00000226,1.75 1.00000226,2.33333333 L1.00000226,5.13333333 C1.00000226,5.71666667 2.16667157,6.53333333 3.00000226,6.53333333 C4.55359718,6.53333333 5.50969355,5.93843028 6.05280011,4.92463366 C6.13749631,4.76653444 6.31062826,4.66666667 6.50001472,4.66666667 L7.29290973,4.66666667 L8.14646505,3.87001684 C8.35350559,3.67677944 8.69334794,3.69019545 8.88216585,3.89906023 L9.57609735,4.66666667 L10.2928665,4.66666667 L11.1464218,3.87001684 C11.3416844,3.68777217 11.6582676,3.68777217 11.8535302,3.87001684 L12.4999783,4.473367 L13.1464264,3.87001684 C13.341689,3.68777217 13.6582722,3.68777217 13.8535348,3.87001684 L14.3630068,4.34552298 L14.8916201,3.35878031 L14.2929256,2.8 L6.50001472,2.8 C6.31062826,2.8 6.13749631,2.70013222 6.05280011,2.54203301 C5.50969355,1.52823639 4.55359718,0.933333333 3.00000226,0.933333333 Z M3.2,2.8 C3.78910373,2.8 4.26666667,3.21786757 4.26666667,3.73333333 C4.26666667,4.2487991 3.78910373,4.66666667 3.2,4.66666667 C2.61089627,4.66666667 2.13333333,4.2487991 2.13333333,3.73333333 C2.13333333,3.21786757 2.61089627,2.8 3.2,2.8 Z" id="path-1"></path>
    </defs>
    <g id="Core/Icons/Workspace/-Foreign-n-Primary" stroke="none" stroke-width="1" fill="none" fill-rule="evenodd">
        <mask id="mask-2" fill="white">
            <use xlink:href="#path-1"></use>
        </mask>
        <use id="Combined-Shape" fill="#AAAAAA" xlink:href="#path-1"></use>
    </g>
</svg>