<?xml version="1.0" encoding="UTF-8"?>
<svg width="16px" height="16px" viewBox="0 0 16 16" version="1.1" xmlns="http://www.w3.org/2000/svg" xmlns:xlink="http://www.w3.org/1999/xlink">
    <!-- Generator: Sketch 61.2 (89653) - https://sketch.com -->
    <title>Core/Icons/Workspace/ Foreign keyDisable</title>
    <desc>Created with Sketch.</desc>
    <defs>
        <path d="M5,4 C6.19508283,4 7.26775622,4.48915735 8.00071825,5.26465696 C8.73224378,4.48915735 9.80491717,4 11,4 L12,4 C14.209139,4 16,5.67147027 16,7.73333333 C16,9.7951964 14.209139,11.4666667 12,11.4666667 L11,11.4666667 C9.80491717,11.4666667 8.73224378,10.9775093 7.99928175,10.2020097 C7.26775622,10.9775093 6.19508283,11.4666667 5,11.4666667 L4,11.4666667 C1.790861,11.4666667 0,9.7951964 0,7.73333333 C0,5.67147027 1.790861,4 4,4 L5,4 Z M5,4.93333333 L4,4.93333333 C2.34314575,4.93333333 1,6.18693603 1,7.73333333 C1,9.27973063 2.34314575,10.5333333 4,10.5333333 L5,10.5333333 C5.99188142,10.5333333 6.87133415,10.0840598 7.41749351,9.39165313 L7.389,9.333 L8.61470269,9.33405069 L8.58436872,9.39230102 L8.58436872,9.39230102 C9.12866585,10.0840598 10.0081186,10.5333333 11,10.5333333 L12,10.5333333 C13.6568542,10.5333333 15,9.27973063 15,7.73333333 C15,6.18693603 13.6568542,4.93333333 12,4.93333333 L11,4.93333333 C10.0086036,4.93333333 9.12952598,5.38216757 8.58330794,6.07399796 L8.612,6.133 L7.38529731,6.13261598 L7.41563128,6.07436564 L7.41563128,6.07436564 C6.87047402,5.38216757 5.9913964,4.93333333 5,4.93333333 Z M9.86666667,6.13333333 C10.8975982,6.13333333 11.7333333,6.84967773 11.7333333,7.73333333 C11.7333333,8.61698893 10.8975982,9.33333333 9.86666667,9.33333333 L6.13333333,9.33333333 C5.1024018,9.33333333 4.26666667,8.61698893 4.26666667,7.73333333 C4.26666667,6.84967773 5.1024018,6.13333333 6.13333333,6.13333333 L9.86666667,6.13333333 Z M4.62095779,6.66511468 C4.43150524,6.88907074 4.30653297,7.16932168 4.27469299,7.4772155 L4.26666667,7.63333333 L4.26666667,7.83333333 C4.26666667,8.20209586 4.39973603,8.53977837 4.62047566,8.80098176 L3.73333333,8.8 C3.1442296,8.8 2.66666667,8.32243707 2.66666667,7.73333333 C2.66666667,7.1442296 3.1442296,6.66666667 3.73333333,6.66666667 L4.62095779,6.66511468 Z M11.3790422,6.66511468 L12.2666667,6.66666667 C12.8557704,6.66666667 13.3333333,7.1442296 13.3333333,7.73333333 C13.3333333,8.32243707 12.8557704,8.8 12.2666667,8.8 L11.3795243,8.80098176 C11.5687297,8.57709314 11.6935243,8.29701578 11.7253186,7.9893392 L11.7333333,7.83333333 L11.7333333,7.63333333 C11.7333333,7.2643024 11.6000702,6.92639675 11.3790422,6.66511468 Z M9.86666667,6.93333333 L6.13333333,6.93333333 C5.61786757,6.93333333 5.2,7.29150553 5.2,7.73333333 C5.2,8.17516113 5.61786757,8.53333333 6.13333333,8.53333333 L9.86666667,8.53333333 C10.3821324,8.53333333 10.8,8.17516113 10.8,7.73333333 C10.8,7.29150553 10.3821324,6.93333333 9.86666667,6.93333333 Z" id="path-1"></path>
    </defs>
    <g id="Core/Icons/Workspace/-Foreign-key" stroke="none" stroke-width="1" fill="none" fill-rule="evenodd">
        <mask id="mask-2" fill="white">
            <use xlink:href="#path-1"></use>
        </mask>
        <use id="Combined-Shape" fill="#AAAAAA" xlink:href="#path-1"></use>
    </g>
</svg>