<?xml version="1.0" encoding="UTF-8"?>
<svg width="16px" height="16px" viewBox="0 0 16 16" version="1.1" xmlns="http://www.w3.org/2000/svg" xmlns:xlink="http://www.w3.org/1999/xlink">
    <!-- Generator: Sketch 61.2 (89653) - https://sketch.com -->
    <title>Core/Icons/Workspace/PrimaryKey</title>
    <desc>Created with Sketch.</desc>
    <defs>
        <path d="M3,4 C4.81614133,4 6.0641947,4.80105834 6.79737197,6.13333333 L14.5000328,6.13333333 C14.6326414,6.13333333 14.7598186,6.18952365 14.853587,6.28954305 L15.8535393,7.35620972 C16.0057198,7.51853519 16.0434471,7.76651997 15.9471997,7.97184725 L14.9471974,10.1051806 C14.7945725,10.4307796 14.3877498,10.5011989 14.1464286,10.2437903 L13.4999806,9.55424723 L12.8535325,10.2437903 C12.6582699,10.4520699 12.3416867,10.4520699 12.1464241,10.2437903 L11.499976,9.55424723 L10.853528,10.2437903 C10.7597596,10.3438097 10.6325823,10.4 10.4999738,10.4 L9.34377116,10.4 C9.1964504,10.4 9.05662743,10.3307 8.96162455,10.2105978 L8.46878971,9.58755866 L7.85357117,10.2437903 C7.75980277,10.3438097 7.63262553,10.4 7.50001698,10.4 L6.79737197,10.4 C6.0641947,11.732275 4.81614133,12.5333333 3,12.5333333 C1.66667044,12.5333333 6.03961325e-14,11.2 6.03961325e-14,9.86666667 L6.03961325e-14,6.66666667 C6.03961325e-14,5.33333333 1.66667044,4 3,4 Z M3.06307892,5.06666667 C2.23124048,5.06666667 1.06666667,6 1.06666667,6.66666667 L1.06666667,9.86666667 C1.06666667,10.5333333 2.23124048,11.4666667 3.06307892,11.4666667 C4.61387886,11.4666667 5.56825794,10.7867775 6.11038901,9.62815275 C6.19493309,9.44746793 6.36775407,9.33333333 6.55680036,9.33333333 L7.34827123,9.33333333 L8.20029346,8.42287638 C8.40696212,8.20203364 8.74619407,8.21736623 8.93467284,8.45606883 L9.62735794,9.33333333 L10.3428397,9.33333333 L11.1948619,8.42287638 C11.3897738,8.21459676 11.7057884,8.21459676 11.9007002,8.42287638 L12.5459872,9.11241943 L13.1912742,8.42287638 C13.3861861,8.21459676 13.7022006,8.21459676 13.8971125,8.42287638 L14.4056695,8.96631198 L14.9333333,7.83860607 L14.3357141,7.2 L6.55680036,7.2 C6.36775407,7.2 6.19493309,7.0858654 6.11038901,6.90518058 C5.56825794,5.74655587 4.61387886,5.06666667 3.06307892,5.06666667 Z M3,7 C3.55228475,7 4,7.44771525 4,8 C4,8.55228475 3.55228475,9 3,9 C2.44771525,9 2,8.55228475 2,8 C2,7.44771525 2.44771525,7 3,7 Z" id="path-1"></path>
    </defs>
    <g id="Core/Icons/Workspace/PrimaryKey" stroke="none" stroke-width="1" fill="none" fill-rule="evenodd">
        <mask id="mask-2" fill="white">
            <use xlink:href="#path-1"></use>
        </mask>
        <use id="Shape" fill="#AAAAAA" xlink:href="#path-1"></use>
    </g>
</svg>