<?xml version="1.0" encoding="UTF-8"?>
<svg width="9px" height="9px" viewBox="0 0 9 9" version="1.1" xmlns="http://www.w3.org/2000/svg" xmlns:xlink="http://www.w3.org/1999/xlink">
    <!-- Generator: Sketch 59.1 (86144) - https://sketch.com -->
    <title>Icons/plus</title>
    <desc>Created with Sketch.</desc>
    <g id="Icons/plus" stroke="none" stroke-width="1" fill="none" fill-rule="evenodd">
        <rect id="Rectangle" fill="#D8D8D8" x="0" y="0" width="9" height="9" rx="1"></rect>
        <path d="M4.5,1 C4.77614237,1 5,1.22385763 5,1.5 L5,4 L7.5,4 C7.77614237,4 8,4.22385763 8,4.5 C8,4.77614237 7.77614237,5 7.5,5 L5,5 L5,7.5 C5,7.77614237 4.77614237,8 4.5,8 C4.22385763,8 4,7.77614237 4,7.5 L4,5 L1.5,5 C1.22385763,5 1,4.77614237 1,4.5 C1,4.22385763 1.22385763,4 1.5,4 L4,4 L4,1.5 C4,1.22385763 4.22385763,1 4.5,1 Z" id="Combined-Shape" fill="#606060"></path>
    </g>
</svg>